<?xml version="1.0" encoding="UTF-8" standalone="no"?>
<!-- Created with Inkscape (http://www.inkscape.org/) -->
<svg xmlns:dc="http://purl.org/dc/elements/1.1/" xmlns:cc="http://creativecommons.org/ns#" xmlns:rdf="http://www.w3.org/1999/02/22-rdf-syntax-ns#" xmlns:svg="http://www.w3.org/2000/svg" xmlns="http://www.w3.org/2000/svg" xmlns:sodipodi="http://sodipodi.sourceforge.net/DTD/sodipodi-0.dtd" xmlns:inkscape="http://www.inkscape.org/namespaces/inkscape" width="456.40463" height="328.7225" id="svg3190" version="1.1" inkscape:version="0.48.3.1 r9886" sodipodi:docname="New document 2">
  <defs id="defs3192"/>
  <sodipodi:namedview id="base" pagecolor="#ffffff" bordercolor="#666666" borderopacity="1.0" inkscape:pageopacity="0.0" inkscape:pageshadow="2" inkscape:zoom="0.7" inkscape:cx="216.73989" inkscape:cy="186.77565" inkscape:document-units="px" inkscape:current-layer="layer1" showgrid="false" fit-margin-top="0" fit-margin-left="0" fit-margin-right="0" fit-margin-bottom="0" inkscape:window-width="470" inkscape:window-height="427" inkscape:window-x="840" inkscape:window-y="0" inkscape:window-maximized="0"/>
  <g inkscape:label="Layer 1" inkscape:groupmode="layer" id="layer1" transform="translate(-60.369108,-470.85808)">
    <path style="fill:#000000" d="m 60.37077,799.2666 c 0.0662,-0.17264 0.44295,-0.46694 0.8371,-0.65398 0.39415,-0.18702 1.5531,-1.0941 2.57544,-2.01568 1.02235,-0.92159 2.34376,-1.94287 2.93648,-2.26947 39.95081,-43.79748 88.96045,-27.32033 137.15263,-65.05554 2.32977,-1.80799 3.08654,-2.21112 5.32532,-2.83669 l 2.12604,-0.59408 0.10508,-6.76167 c 0.058,-3.71891 0.006,-9.01921 -0.11952,-11.77844 l -0.22461,-5.01678 0.61457,-2.81591 c 0.33797,-1.54874 0.94961,-3.74727 1.35913,-4.88562 0.41392,-1.15068 0.83541,-2.86522 0.94925,-3.86119 0.27612,-2.41676 3.73129,-29.59433 3.89657,-30.6496 2.00143,-2.05221 3.17482,-3.94147 3.17801,-6.45215 0,-1.62124 -0.15313,-2.45345 -0.96801,-5.26137 -0.75151,-2.5894 -0.9449,-3.57832 -0.86461,-4.42097 0.12203,-1.28008 0.81274,-3.14451 1.39738,-3.7716 0.2278,-0.24438 0.56845,-0.81354 0.75701,-1.26482 0.2336,-0.55903 0.51816,-0.85691 0.89309,-0.9347 0.30265,-0.0629 0.78629,-0.16267 1.07482,-0.22193 0.85722,-0.17607 2.84047,0.6445 6.21956,2.57328 2.54985,0.99258 3.53795,2.38475 4.91402,4.58474 2.14147,2.58409 2.47122,5.81712 2.91733,8.45504 0.99911,5.9319 1.01871,6.55267 0.5374,17.03893 -0.43011,9.37232 -0.42748,11.23399 0.0165,11.67811 0.40872,0.40867 1.46942,0.45278 2.15,0.0894 6.53113,-6.10063 11.33318,-10.92623 18.13306,-17.61184 1.66314,-0.05 3.36238,0.0113 4.96437,0.32766 0.5159,0.18203 1.27432,0.33096 1.68536,0.33096 8.88917,-1.89523 17.89553,-4.54884 26.58969,-4.76885 l 6.69745,-0.15246 3.2385,1.07089 3.2385,1.07092 3.18606,3.66355 3.18613,3.66359 2.87823,12.13183 2.87822,12.13186 c -1.21867,5.19184 -2.37649,10.25365 -2.38384,15.58377 1.38783,5.68156 -3.94723,3.77846 -3.97749,7.06552 -0.0937,8.81685 2.26225,15.13146 6.17789,22.0587 0.72962,5.2362 -0.99308,9.43063 -2.86143,14.18467 l -4.8946,3.86119 c -2.69198,2.12365 -8.84878,7.0121 -13.68184,10.86325 -6.7566,5.38394 -9.6735,7.55727 -12.62225,9.40463 l -3.83492,2.40257 c -12.37692,3.63824 -24.34378,8.34929 -35.11709,15.57843 -0.89895,0.62049 -1.75935,1.12975 -1.91193,1.13166 -0.30496,0.005 -1.85926,1.93245 -1.85926,2.30699 0,0.12863 0.19859,0.43245 0.44129,0.67516 l 0.44129,0.44127 -90.23442,0 c -77.940639,0 -90.21801,-0.0428 -90.11396,-0.31392 z m 184.1895,-1.55217 c 10.56892,-7.6439 22.91536,-11.71387 35.64476,-15.96801 l 4.08363,-2.55613 c 3.2479,-2.03297 5.883,-3.98987 12.8754,-9.56146 4.83543,-3.85293 11.02878,-8.77205 13.76299,-10.9314 l 4.97127,-3.92608 c 3.13777,-5.5947 3.1477,-11.05355 3.1477,-17.25254 -3.17866,-4.42763 -4.44209,-8.63154 -5.19497,-13.94842 -0.4983,-3.51919 -0.88265,-6.43094 -0.85405,-6.47056 3.19665,-2.1624 3.83979,-3.07894 3.84263,-6.14547 -0.4031,-5.77088 1.67577,-11.27613 2.42697,-16.93929 0,-0.72189 -4.57979,-20.70732 -5.75426,-25.1105 -0.15355,-0.57588 -1.16989,-1.92647 -3.32074,-4.41278 -1.70467,-1.97056 -3.29056,-3.74886 -3.52415,-3.95171 -0.2336,-0.20285 -1.98452,-0.88871 -3.89097,-1.52408 l -3.46616,-1.15524 -7.72815,0.13875 c -8.09157,-2.4173 -20.68703,6.05679 -27.39919,4.38104 -2.62736,-0.33427 -4.72894,-0.25812 -7.43541,-0.25812 l -3.43598,3.36098 c -1.88975,1.84854 -5.64854,5.54699 -8.3528,8.21881 l -4.91683,4.85782 0.12532,-2.31671 c 0.73595,-7.94222 0.64022,-18.23484 -0.3423,-24.1211 -0.10115,-3.48115 -1.20832,-5.83479 -2.98119,-8.65993 -1.25723,-2.89622 -3.03805,-3.86426 -5.65295,-5.34488 -1.96131,-1.11053 -3.63908,-2.04649 -3.72836,-2.07991 -0.0893,-0.0334 0.77058,-3.98265 1.9109,-8.77603 1.1468,-4.82052 2.80612,-12.65925 3.71309,-17.5408 l 1.63984,-8.82555 3.4496,-10.81132 c 1.89733,-5.94622 3.5811,-11.21531 3.74168,-11.70909 l 0.29202,-0.89777 -4.44095,-1.94677 c -2.44251,-1.07072 -4.98154,-2.30496 -5.64232,-2.74277 -1.08227,-0.71711 -1.2415,-0.92719 -1.60685,-2.11983 -0.79263,-2.58771 -1.00136,-4.46532 -0.83411,-7.50173 0.1371,-2.48909 0.27789,-3.2475 1.06521,-5.73662 1.06644,-3.37148 1.71854,-4.79108 2.97734,-6.48172 1.25605,-1.68683 1.4374,-1.86366 2.57846,-2.51381 0.65167,-0.37131 1.52361,-0.62239 2.53733,-0.7306 0.84945,-0.0907 1.69342,-0.18276 1.87544,-0.20463 2.59612,-0.31193 3.34739,-0.30198 5.18502,0.0688 l 1.98575,0.40058 0.067,1.28256 0.067,1.28254 -0.61862,-0.1746 c -0.34016,-0.0961 -1.26392,-0.19985 -2.05271,-0.23071 -0.78879,-0.0308 -1.68237,-0.11861 -1.98575,-0.19499 -1.03785,-0.26132 -4.83892,-0.13421 -5.46695,0.18281 -0.33033,0.16675 -0.69987,0.27052 -0.82124,0.2306 -0.29469,-0.097 -1.01517,0.46248 -1.07102,0.83165 -0.0245,0.1619 -0.13485,0.43909 -0.2452,0.61597 -0.59002,0.94591 -0.25041,2.13297 0.92828,3.2446 0.76478,0.72131 1.83409,2.10048 3.99906,5.15791 0.47605,0.67233 1.02495,1.35467 1.21974,1.51633 0.1948,0.16166 0.35416,0.41584 0.35416,0.56486 0,0.14903 0.28939,0.49276 0.64312,0.76385 0.35379,0.27108 1.3064,1.27884 2.11706,2.23944 0.81066,0.96062 1.55093,1.69897 1.64503,1.64079 0.0941,-0.0581 0.24118,-1.52269 0.32672,-3.25449 0.0856,-1.73179 0.21216,-3.38692 0.28133,-3.67805 0.0867,-0.36472 0.0471,-0.48076 -0.12704,-0.37311 -0.312,0.19285 -0.35293,-1.00435 -0.0452,-1.31497 0.18416,-0.18574 0.59967,-2.09257 0.79086,-3.62951 0.0378,-0.30338 0.0843,-0.5516 0.10346,-0.5516 0.0189,0 0.0708,-0.19274 0.11489,-0.4283 0.0439,-0.23556 0.13741,-0.6567 0.20744,-0.93586 0.0701,-0.27915 -0.0183,-0.8559 -0.19603,-1.28165 -0.17786,-0.42575 -0.254,-0.77211 -0.16919,-0.76969 0.39186,0.0115 4.09645,0.73477 8.31786,1.62458 3.71486,0.78306 6.05501,1.45629 11.8042,3.39595 l 7.17075,2.41926 3.90447,2.559 3.90452,2.55898 0.55641,1.76137 0.55641,1.76134 -1.6677,4.01481 c -1.60709,3.86891 -1.74518,4.11067 -3.799,6.65218 l -2.13129,2.63735 -1.97946,0.87068 -1.97939,0.87068 -6.29454,-0.2488 -6.29453,-0.2488 -6.75452,-1.84673 c -6.70949,-1.8344 -8.35966,-2.39641 -8.3588,-2.84687 0,-0.12922 0.23348,-1.19805 0.51828,-2.37517 l 0.51786,-2.14024 -0.68382,-0.63862 c -0.57859,-0.54041 -3.53576,-3.05541 -4.5136,-3.83868 -0.82356,-0.65976 -2.67867,-1.8341 -3.56155,-2.25458 -0.54609,-0.2601 -1.26705,-0.65612 -1.60221,-0.88007 -0.41287,-0.2759 -0.81964,-0.36512 -1.2616,-0.27673 -0.41923,0.0838 -0.71387,0.0285 -0.82477,-0.15504 -0.35147,-0.58154 -0.86609,-0.55541 -1.23106,0.0625 -0.4218,0.714 -0.60914,1.7215 -0.74754,4.02017 -0.16578,2.75356 0.53923,3.69148 4.18547,5.56783 2.66468,1.37126 6.91828,2.98829 7.94312,3.01961 0.46873,0.0143 0.47068,0.0226 0.0476,0.20221 -0.24272,0.103 -0.63989,0.25434 -0.88259,0.33631 -0.70941,0.23961 2.41255,1.29903 8.49463,2.8826 7.26773,1.89229 11.54902,2.41706 17.96253,2.20173 4.25966,-0.14301 4.44077,-0.16807 5.95724,-0.82423 1.42592,-0.61699 1.8028,-0.93508 4.26906,-3.60324 l 2.70507,-2.92651 1.34745,-3.27889 c 0.74107,-1.80338 1.43185,-3.50033 1.53511,-3.77099 0.18582,-0.48711 0.26288,-0.46664 7.59971,2.01765 4.07666,1.38037 7.45637,2.55403 7.51044,2.60816 0.0543,0.0541 -0.0562,2.89491 -0.24552,6.31288 l -0.34395,6.21448 2.47164,3.52933 c 1.35932,1.94114 2.58072,3.61315 2.71417,3.71557 0.13345,0.10243 7.86948,3.23235 17.19121,6.95537 l 16.94857,6.76916 3.82796,0.57345 c 3.16053,0.47349 4.18695,0.54423 5.88753,0.4057 l 2.05962,-0.16777 3.04094,-3.38406 3.04102,-3.38402 1.15112,0.45688 c 0.63316,0.25127 5.34951,2.08693 10.48075,4.07921 l 9.32955,3.62231 8.54224,6.23822 8.54217,6.2382 1.13311,3.35808 c 0.62325,1.84693 1.18639,3.56175 1.25152,3.8107 l 0.11836,0.45259 0.84457,-0.43724 c 1.76981,-0.9163 1.70584,-0.52562 0.83621,-5.10523 l -0.77504,-4.08183 -2.47659,-2.50639 c -2.1467,-2.17252 -4.69967,-4.17612 -19.16523,-15.04113 l -16.68858,-12.53474 -0.15611,-1.97297 -0.15619,-1.97296 -2.24048,-2.20843 -2.24055,-2.20843 -8.18833,-3.43694 c -7.59714,-3.18884 -8.75688,-3.60578 -16.06434,-5.77542 -10.56487,-3.13676 -14.68089,-3.96775 -21.31515,-4.30336 l -4.9194,-0.24886 -1.58454,1.57394 -1.58455,1.57395 -5.49541,-1.68343 c -3.02256,-0.92589 -6.46355,-1.97951 -7.64676,-2.3414 l -2.15122,-0.65797 -0.006,-0.81792 c -0.006,-0.694 -0.24911,-1.10204 -1.61545,-2.69335 -1.56621,-1.82415 -1.71365,-1.93138 -5.39222,-3.9214 -3.29605,-1.78308 -4.59817,-2.33164 -10.13356,-4.26912 -7.83043,-2.74076 -7.06981,-2.52185 -14.51517,-4.17729 -3.39785,-0.75549 -6.21094,-1.40105 -6.25139,-1.43456 -0.0404,-0.0335 0.27087,-0.57227 0.69175,-1.19721 0.75408,-1.11972 0.76355,-1.16293 0.65112,-2.96469 -0.13101,-2.10045 0.0446,-2.71045 3.81837,-13.25615 1.12902,-3.15513 2.4081,-7.17628 2.84229,-8.93588 0.96673,-3.91706 1.08282,-4.17774 2.63296,-5.91043 0.68265,-0.76302 1.24114,-1.47097 1.24114,-1.5732 0,-0.10219 1.04311,-1.09905 2.31791,-2.21516 2.64151,-2.31266 3.22573,-3.08067 4.45464,-5.85625 1.28758,-2.90812 5.3112,-9.2442 6.7852,-10.68484 0.67379,-0.65853 1.22507,-1.31622 1.22507,-1.46152 0,-0.64532 3.40365,-3.44348 5.18501,-4.26261 0.60676,-0.27901 1.47907,-0.80427 1.93851,-1.16725 0.9663,-0.76343 4.12908,-2.39161 4.64578,-2.39161 0.1929,0 1.23013,-0.4468 2.30489,-0.99288 1.07482,-0.54608 2.07331,-0.99288 2.21892,-0.99288 3.81935,-2.56008 6.97458,-7.21837 11.5946,-7.6164 4.93504,-0.63876 8.67939,-4.88016 12.75912,-4.70888 3.86698,-0.88698 8.01382,-0.66818 11.53436,-0.54954 2.18434,0.0717 4.13874,0.21784 4.34313,0.32471 0.20439,0.10692 0.70079,0.19502 1.10322,0.19588 0.40231,6.1e-4 1.5755,0.20647 2.60699,0.45692 1.05588,0.2564 2.93603,0.497 4.30243,0.55061 1.33488,0.0524 3.3703,0.2125 4.52314,0.35584 1.15284,0.14335 2.49322,0.25225 2.97863,0.24198 2.61786,-0.0553 4.66709,-0.20879 4.9255,-0.36892 0.18697,-0.11582 0.48461,-1.9e-4 0.82654,0.32103 0.29392,0.27612 0.58954,0.44692 0.65693,0.37954 0.16193,-0.16192 1.77067,1.37128 1.69948,1.61972 -0.0306,0.10588 0.0441,0.1926 0.16547,0.1926 0.12135,0 0.22065,0.14228 0.22065,0.31618 0,0.43259 1.81795,1.89022 2.35744,1.89022 7.46198,2.91358 14.25835,8.54073 21.22039,11.72821 0.40787,0.23159 0.92687,0.36227 1.15321,0.29041 1.85598,0.57719 2.90207,1.58066 4.74262,2.54353 0.14946,0 0.72494,0.50405 1.27877,1.1201 0.55391,0.61604 1.09859,1.06352 1.21041,0.9944 0.11189,-0.0691 0.25981,0.0991 0.3288,0.37381 0.13845,0.55198 1.3749,1.91238 1.76816,1.94551 0.13723,0.0115 0.79568,0.65338 1.46306,1.42626 1.87625,2.17268 2.04709,2.33441 2.81315,2.66343 0.39443,0.16938 0.71711,0.40717 0.71711,0.52841 0,0.12122 0.53949,0.56553 1.19893,0.98734 1.10353,0.96775 2.42075,1.53469 3.43451,2.37518 0,0.16224 0.44679,0.7208 0.99287,1.24125 0.54608,0.52045 0.99287,1.11373 0.99287,1.31842 0,0.53372 2.86063,3.25844 3.60243,3.43122 1.13439,0.26425 2.26615,1.7025 3.4867,4.43081 0.16284,0.36405 0.49604,0.87293 0.74046,1.13082 0.24441,0.25791 0.69261,0.82854 0.99599,1.2681 0.30331,0.43954 1.04799,1.08789 1.65474,1.44077 1.45996,0.84907 2.97863,2.30491 2.97863,2.85539 0,0.24276 0.59306,1.06965 1.31794,1.83753 1.00161,1.06111 1.30829,1.53864 1.27787,1.98993 -0.022,0.32657 0.12959,0.78118 0.33692,1.01024 0.20726,0.22906 0.37688,0.51738 0.37688,0.6407 0,0.12333 0.18863,0.39499 0.41929,0.60368 0.42798,0.38733 0.80565,1.33474 0.44264,1.11039 -0.48187,-0.29785 -0.12458,0.39582 0.76887,1.49264 0.56313,0.69132 1.34599,1.35946 1.8694,1.59549 0.49532,0.22335 0.84403,0.4975 0.77499,0.60923 -0.12044,0.19484 0.0798,0.84835 0.69657,2.2726 0.15759,0.36405 0.50185,1.30729 0.76503,2.09608 0.26311,0.78878 0.71821,1.91392 1.01132,2.50031 0.3137,0.62758 0.53295,1.45353 0.53295,2.0078 0,0.7207 0.16828,1.16423 0.71711,1.89023 0.39437,0.52171 0.81635,1.10751 0.9377,1.30178 0.12135,0.19426 0.27948,0.40285 0.35147,0.46352 0.12978,0.10946 1.14936,2.19904 2.31454,4.74374 0.44642,0.97486 0.63298,1.78912 0.70776,3.08894 0.0556,0.97082 0.24204,2.04107 0.41379,2.37835 0.17177,0.33728 0.27027,0.68478 0.21888,0.77224 -0.0513,0.0874 0.0117,0.40721 0.13999,0.71059 0.30253,0.71476 0.38814,3.78308 0.11511,4.12288 -0.13597,0.16921 -0.11373,0.44213 0.063,0.77224 0.16046,0.29974 0.29727,1.57107 0.33136,3.07911 0.0318,1.41272 0.17959,3.00133 0.32813,3.53023 0.48333,1.72057 0.62869,5.13931 0.24844,5.84246 -0.15513,0.2869 -0.25143,1.61049 -0.24881,3.41992 0.006,2.87813 -0.29299,5.6466 -0.68466,6.3784 -0.10692,0.19982 -0.13792,0.57939 -0.0689,0.84352 0.10381,0.39689 0.0538,0.45442 -0.28713,0.33148 -0.227,-0.0818 -0.34225,-0.0707 -0.25608,0.0247 0.0862,0.0954 0.008,0.46163 -0.17446,0.81388 -0.18215,0.35223 -0.276,0.72977 -0.20848,0.83897 0.0675,0.10923 -0.17666,1.01889 -0.5426,2.02151 -0.36589,1.00261 -0.66524,2.04076 -0.66524,2.30697 0,0.26622 -0.1431,0.96705 -0.31798,1.5574 -0.56863,1.91983 -1.05068,4.132 -1.2195,5.59648 -0.0909,0.78877 -0.37793,1.90031 -0.63775,2.47007 -0.25987,0.56978 -0.47246,1.1221 -0.47246,1.22739 0,0.1053 -0.30881,0.4831 -0.6863,0.83951 -0.37745,0.35642 -1.03181,1.3927 -1.45403,2.30283 -0.42223,0.91014 -1.00699,2.11503 -1.29943,2.67753 -0.29245,0.56252 -0.53173,1.2233 -0.53173,1.46845 0,0.24516 -0.18881,0.82745 -0.41953,1.29399 -0.23079,0.46654 -0.69316,1.41787 -1.02752,2.11408 -0.33443,0.69619 -0.791,1.43141 -1.01463,1.63383 -0.22364,0.20239 -0.40664,0.44191 -0.40664,0.53227 0,0.0903 -0.3475,0.68066 -0.77224,1.3118 -0.42472,0.63114 -0.77319,1.41061 -0.77442,1.73213 0,0.68811 -0.91118,2.7211 -1.64797,3.6871 -0.28474,0.37327 -0.63553,1.11621 -0.7795,1.65095 -0.14402,0.53475 -0.4427,1.09893 -0.6637,1.25378 -0.22108,0.15482 -0.46721,0.57865 -0.54694,0.94184 -0.0798,0.36317 -0.27332,0.73539 -0.43006,0.82711 -0.15678,0.0917 -0.52133,0.60224 -0.81017,1.13444 -0.89236,1.64427 -1.00809,1.81105 -1.49215,2.15008 -0.25828,0.18093 -0.62118,0.62198 -0.80639,0.98008 -0.32751,0.63337 -0.30777,0.70073 0.72255,2.46879 0.58257,0.99974 1.27047,2.36378 1.52864,3.03121 0.52054,1.34561 0.99453,3.60112 0.84635,4.02746 -0.0526,0.15125 -0.14133,0.70796 -0.19725,1.23715 -0.10634,1.0052 -1.31409,3.70234 -2.33563,5.21574 -0.88111,1.30535 -2.84181,5.1024 -3.41795,6.61918 -1.05257,2.77113 -1.65506,4.50817 -2.5636,7.3914 -0.51621,1.63825 -0.95884,3.07791 -0.98359,3.19926 -0.10474,0.51374 -0.80449,2.43452 -0.96257,2.64227 -0.0947,0.12433 -0.52078,1.06998 -0.94698,2.10147 -0.4262,1.03148 -1.01255,2.23854 -1.30297,2.68235 -0.29049,0.44382 -0.87562,1.37357 -1.30036,2.06611 -0.80216,1.30799 -2.69509,3.43778 -3.36247,3.78314 -0.21111,0.10923 -1.16646,0.95467 -2.12304,1.87868 -0.95658,0.92404 -2.48687,2.23294 -3.40061,2.90869 -0.91375,0.67577 -1.97872,1.51849 -2.36661,1.87277 -0.38782,0.35427 -1.56418,1.2178 -2.61407,1.91897 -1.04988,0.70117 -2.16399,1.44684 -2.47587,1.65704 -2.19642,1.4807 -7.49789,3.5528 -10.57527,4.13338 -1.50742,0.28439 -1.96203,0.46412 -2.31667,0.91584 -0.24272,0.30911 -0.9605,1.10846 -1.59506,1.77634 -0.63451,0.66788 -1.15577,1.31394 -1.15834,1.43567 -0.007,0.32775 -1.04884,1.24841 -2.50153,2.21023 -0.79141,0.52395 -1.49728,1.21469 -1.84124,1.80159 -0.30685,0.52352 -0.64769,0.96428 -0.75749,0.97943 -0.10993,0.0152 -0.29898,0.04 -0.42033,0.0551 -0.12135,0.0152 -0.19584,0.0948 -0.16547,0.17708 0.0306,0.0822 -0.36681,0.45518 -0.88259,0.82878 -0.53728,0.38919 -0.93769,0.85876 -0.93769,1.09956 0,0.23114 -0.2886,0.66311 -0.64135,0.95992 -0.75824,0.63801 -1.67668,2.30635 -1.5901,2.88844 0.0348,0.23375 -0.0361,0.35041 -0.16406,0.27117 -0.12379,-0.0765 -0.3274,0.0368 -0.45253,0.25169 -0.12515,0.2149 -0.23049,0.2973 -0.23421,0.1831 -0.009,-0.29947 -0.65321,0.59603 -0.66157,0.92062 -0.006,0.14944 -0.38905,1.09266 -0.85594,2.09607 -2.2287,4.78957 -2.26035,4.95553 -1.15395,6.04798 0.7437,0.7343 1.59902,2.17069 3.34182,5.61201 0.21986,0.43421 0.53551,0.90208 0.70141,1.03976 0.3461,0.28728 2.27061,0.8439 4.35816,1.26054 1.75868,0.35101 1.88853,0.39267 6.39853,2.05263 29.20945,16.6369 64.14272,18.87725 94.87476,32.07832 1.39555,0.61049 3.06643,1.335 3.71315,1.61003 0.64672,0.27502 1.28709,0.61133 1.42317,0.74735 0.13595,0.136 0.40115,0.24967 0.58928,0.25261 0.64795,0.0104 8.34396,4.02298 11.23012,5.85568 1.13445,0.72037 2.26969,1.42733 2.52279,1.57101 1.71218,0.97188 7.00157,4.51235 8.43231,5.64414 0.12135,0.096 0.96532,0.70734 1.87546,1.35858 0.91014,0.65121 1.86445,1.36827 2.12072,1.59345 0.25621,0.22518 0.61372,0.50871 0.79435,0.63006 1.66165,1.11615 2.1941,1.39542 3.15246,1.65337 1.50535,0.40515 3.38691,1.48414 4.22477,2.4227 0.38195,0.42791 1.15143,1.28473 1.70992,1.90406 0.55849,0.61933 1.01548,1.29061 1.01548,1.49172 0,0.66266 0.8736,2.22217 1.71255,3.05703 0.45364,0.45142 1.49496,1.44109 2.31406,2.1993 0.81916,0.7582 1.48935,1.46671 1.48935,1.57453 0,0.10772 0.28358,0.55774 0.63016,0.99995 1.15308,1.47122 2.97061,4.7976 2.82989,5.17907 -0.0526,0.14209 0.099,0.58102 0.33637,0.97541 l 0.4317,0.71708 -137.47814,0 -137.47806,0 2.74195,-1.8661 z M 342.2131,605.74964 c -1.63825,-0.38612 -3.77296,-0.95969 -4.74377,-1.27463 -1.48006,-0.48013 -12.23627,-4.7786 -28.90369,-11.55065 l -3.53021,-1.43435 -2.5127,-3.3239 -2.51271,-3.32391 0.83339,-5.87379 0.83339,-5.87381 0.99966,-1.68166 c 0.54981,-0.92493 1.10776,-1.82946 1.2398,-2.01008 0.17353,-0.23729 1.21901,-0.42762 3.76857,-0.68604 3.16419,-0.32073 3.73349,-0.32378 5.51423,-0.0295 1.09218,0.18044 3.87221,0.62715 6.17789,0.99268 3.95024,0.62626 4.65042,0.81722 12.13514,3.30974 5.77845,1.92431 9.92708,3.48022 15.22379,5.70959 l 7.28075,3.06445 1.88743,2.13029 1.88736,2.13028 -0.26292,2.25041 c -0.29073,2.4879 -2.01886,8.89316 -3.41869,12.67136 -0.78916,2.12994 -1.02061,2.51782 -2.23414,3.74394 -1.23471,1.24755 -1.45231,1.3777 -2.47439,1.48015 -3.35257,0.33601 -4.18498,0.28732 -7.18818,-0.42049 z" id="path3218" inkscape:connector-curvature="0" sodipodi:nodetypes="cssccsccccccccccccssscccscccccccccccccccccssscccsscsccccssscccccccsccccccssccccccsccsccsccsscsscsccccscssccccsscscsccccsccccsscccccsscccccsccccccccccsscccsssscccsccccsscssccccscccccccccsscccccssscccsccccssscscccsssssssssccccccsccssscccccccccssccccccccsssccscsscccscccsccccscscccscccccccccccccccscccscscscccssccccccsccccccsccccscsccccsccccccccccsscccsscsscccccsccscccccccssscsscccccsccsscccccscsssssccccsss"/>
  </g>
  <metadata>
    <rdf:RDF>
      <cc:Work>
        <dc:format>image/svg+xml</dc:format>
        <dc:type rdf:resource="http://purl.org/dc/dcmitype/StillImage"/>
        <cc:license rdf:resource="http://creativecommons.org/licenses/publicdomain/"/>
        <dc:publisher>
          <cc:Agent rdf:about="http://openclipart.org/">
            <dc:title>Open Clip Art Library</dc:title>
          </cc:Agent>
        </dc:publisher>
        <dc:title>Indecisive silhouette.svg</dc:title>
        <dc:date>2012-07-26T04:29:12</dc:date>
        <dc:description>A black silhouette thinking about something.</dc:description>
        <dc:source>http://openclipart.org/detail/171299/indecisive-silhouette.svg-by-tulvur-171299</dc:source>
        <dc:creator>
          <cc:Agent>
            <dc:title>tulvur</dc:title>
          </cc:Agent>
        </dc:creator>
        <dc:subject>
          <rdf:Bag>
            <rdf:li>black</rdf:li>
            <rdf:li>choice</rdf:li>
            <rdf:li>clip art</rdf:li>
            <rdf:li>clipart</rdf:li>
            <rdf:li>doubt</rdf:li>
            <rdf:li>doubtful</rdf:li>
            <rdf:li>figure</rdf:li>
            <rdf:li>guy</rdf:li>
            <rdf:li>indecisive</rdf:li>
            <rdf:li>reflect</rdf:li>
            <rdf:li>silhouette</rdf:li>
            <rdf:li>think</rdf:li>
            <rdf:li>thinking</rdf:li>
          </rdf:Bag>
        </dc:subject>
      </cc:Work>
      <cc:License rdf:about="http://creativecommons.org/licenses/publicdomain/">
        <cc:permits rdf:resource="http://creativecommons.org/ns#Reproduction"/>
        <cc:permits rdf:resource="http://creativecommons.org/ns#Distribution"/>
        <cc:permits rdf:resource="http://creativecommons.org/ns#DerivativeWorks"/>
      </cc:License>
    </rdf:RDF>
  </metadata>
</svg>
