<?xml version="1.0" encoding="UTF-8" standalone="no"?>
<!-- Created with Inkscape (http://www.inkscape.org/) -->

<svg
   xmlns:dc="http://purl.org/dc/elements/1.1/"
   xmlns:cc="http://creativecommons.org/ns#"
   xmlns:rdf="http://www.w3.org/1999/02/22-rdf-syntax-ns#"
   xmlns:svg="http://www.w3.org/2000/svg"
   xmlns="http://www.w3.org/2000/svg"
   xmlns:sodipodi="http://sodipodi.sourceforge.net/DTD/sodipodi-0.dtd"
   xmlns:inkscape="http://www.inkscape.org/namespaces/inkscape"
   id="svg13195"
   sodipodi:docname="cold.svg"
   viewBox="0 0 32.24284 99.935509"
   version="1.1"
   inkscape:version="0.91 r13725"
   width="32.24284"
   height="99.935509">
  <defs
     id="defs13197">
    <linearGradient
       id="linearGradient11667"
       y2="707.40997"
       gradientUnits="userSpaceOnUse"
       x2="1236.4"
       y1="707.40997"
       x1="1142.7"
       inkscape:collect="always">
      <stop
         id="stop9443"
         style="stop-color:#d0d0d0"
         offset="0" />
      <stop
         id="stop9445"
         style="stop-color:#f2f2f2"
         offset="1" />
    </linearGradient>
    <linearGradient
       id="linearGradient11669"
       y2="711.47998"
       gradientUnits="userSpaceOnUse"
       x2="798.29999"
       y1="712.35999"
       x1="849.13"
       inkscape:collect="always">
      <stop
         id="stop9233"
         style="stop-color:#024bae"
         offset="0" />
      <stop
         id="stop9235"
         style="stop-color:#3e8feb"
         offset="1" />
    </linearGradient>
    <radialGradient
       id="radialGradient11671"
       gradientUnits="userSpaceOnUse"
       cy="806.77002"
       cx="1179.9"
       r="39.870998"
       inkscape:collect="always">
      <stop
         id="stop9225"
         style="stop-color:#3584e1"
         offset="0" />
      <stop
         id="stop9223"
         style="stop-color:#064eaf"
         offset="1" />
    </radialGradient>
    <linearGradient
       id="linearGradient11673"
       y2="693.08002"
       gradientUnits="userSpaceOnUse"
       x2="1186.5"
       y1="693.08002"
       x1="1170.7"
       inkscape:collect="always">
      <stop
         id="stop9384"
         style="stop-color:white"
         offset="0" />
      <stop
         id="stop9386"
         style="stop-color:white;stop-opacity:0"
         offset="1" />
    </linearGradient>
    <radialGradient
       id="radialGradient11675"
       gradientUnits="userSpaceOnUse"
       cy="1008.4"
       cx="1070.1"
       gradientTransform="matrix(1,0,0,0.2,0,806.69)"
       r="58.865002"
       inkscape:collect="always">
      <stop
         id="stop9469"
         style="stop-color:black"
         offset="0" />
      <stop
         id="stop9471"
         style="stop-color:black;stop-opacity:0"
         offset="1" />
    </radialGradient>
  </defs>
  <sodipodi:namedview
     id="base"
     bordercolor="#666666"
     inkscape:pageshadow="2"
     inkscape:window-y="24"
     fit-margin-left="0"
     pagecolor="#ffffff"
     fit-margin-top="0"
     inkscape:window-maximized="1"
     inkscape:zoom="7.9195959"
     inkscape:window-x="0"
     inkscape:window-height="1056"
     showgrid="false"
     borderopacity="1.0"
     inkscape:current-layer="layer1"
     inkscape:cx="67.566004"
     inkscape:cy="55.239063"
     fit-margin-right="0"
     fit-margin-bottom="0"
     inkscape:window-width="1920"
     inkscape:pageopacity="0.0"
     inkscape:document-units="px" />
  <g
     id="layer1"
     inkscape:label="Ebene 1"
     inkscape:groupmode="layer"
     transform="translate(-179.28821,-347.78078)">
    <rect
       x="179.28601"
       y="340.22003"
       width="110"
       height="110"
       style="color:#000000;opacity:0;stroke-width:6.80000019"
       id="rect9627" />
    <g
       transform="matrix(0.27387,0,0,0.27387,-130.035,200.31)"
       id="g9527">
      <g
         id="g9475">
        <path
           d="m 1186.2,539.47 c -11.987,0 -21.625,9.669 -21.625,21.656 l 0,227.5 c 0,0.052 -4e-4,0.10435 0,0.15625 -13.168,8.3005 -21.906,22.972 -21.906,39.688 0,25.892 20.983,46.875 46.875,46.875 25.892,0 46.875,-20.983 46.875,-46.875 0,-17.082 -9.1296,-32.024 -22.781,-40.219 l 0,-227.12 c 0,-11.987 -9.6376,-21.656 -21.625,-21.656 l -5.8124,0 z"
           inkscape:connector-curvature="0"
           style="color:#000000;opacity:0.98470998;fill:url(#linearGradient11667)"
           id="rect9214" />
        <g
           transform="translate(364.54,-8.7629)"
           id="g9287">
          <path
             d="m 848.25,752.97 c -7.0644,1.4612 -15.663,2.3438 -24.969,2.3438 -8.9176,0 -17.201,-0.80458 -24.094,-2.1562 l 0,45.094 c 0,11.987 9.6377,21.656 21.625,21.656 l 5.8125,0 c 11.987,0 21.625,-9.669 21.625,-21.656 l 0,-45.281 z"
             inkscape:connector-curvature="0"
             style="color:#000000;opacity:0.98470998;fill:url(#linearGradient11669)"
             id="rect9210" />
          <circle
             r="39.871414"
             cy="817.95331"
             cx="1189.5702"
             transform="matrix(1.1758,0,0,1.1758,-574.57,-123.66)"
             style="color:#000000;opacity:0.98470998;fill:url(#radialGradient11671)"
             id="path9212" />
        </g>
        <path
           inkscape:connector-curvature="0"
           style="color:#000000;text-indent:0;text-transform:none;block-progression:tb;opacity:0.98470998;fill:#333333"
           d="m 1186.2,538.47 c -12.525,0 -22.625,10.133 -22.625,22.656 l 0,227.16 c -13.174,8.5307 -21.906,23.332 -21.906,40.188 0,26.432 21.443,47.875 47.875,47.875 26.432,0 47.875,-21.443 47.875,-47.875 0,-17.221 -9.1262,-32.284 -22.781,-40.719 l 0,-226.62 c 0,-12.523 -10.1,-22.656 -22.625,-22.656 l -5.8124,0 z m 0,2 5.8124,0 c 11.45,0 20.625,9.2049 20.625,20.656 l 0,227.12 0,0.5625 0.5,0.28125 c 13.36,8.0202 22.281,22.65 22.281,39.375 0,25.352 -20.523,45.875 -45.875,45.875 -25.352,0 -45.875,-20.523 -45.875,-45.875 0,-16.367 8.5504,-30.72 21.438,-38.844 l 0.4688,-0.28125 0,-0.5625 c -4e-4,-0.0416 0,-0.0991 0,-0.15625 l 0,-227.5 c 0,-11.451 9.1753,-20.656 20.625,-20.656 z"
           id="path9219" />
        <rect
           x="1168.6"
           y="587.64001"
           width="16.110001"
           height="194.57001"
           ry="8.0551996"
           style="color:#000000;opacity:0.98470998;fill:url(#linearGradient11673)"
           id="rect9355" />
      </g>
      <ellipse
         ry="11.773046"
         rx="58.865231"
         cy="1008.3682"
         cx="1070.1079"
         transform="translate(118.21,-116.77)"
         style="color:#000000;opacity:0.5;fill:url(#radialGradient11675)"
         id="path9465" />
    </g>
  </g>
  <metadata
     id="metadata4233">
    <rdf:RDF>
      <cc:Work>
        <dc:format>image/svg+xml</dc:format>
        <dc:type
           rdf:resource="http://purl.org/dc/dcmitype/StillImage" />
        <cc:license
           rdf:resource="http://creativecommons.org/publicdomain/zero/1.0/" />
        <dc:publisher>
          <cc:Agent
             rdf:about="http://openclipart.org/">
            <dc:title>Openclipart</dc:title>
          </cc:Agent>
        </dc:publisher>
        <dc:title>weather icon - cold</dc:title>
        <dc:date>2012-06-14T11:08:47</dc:date>
        <dc:description />
        <dc:source>https://openclipart.org/detail/170665/weather-icon---cold-by-gnokii-170665</dc:source>
        <dc:creator>
          <cc:Agent>
            <dc:title>gnokii</dc:title>
          </cc:Agent>
        </dc:creator>
        <dc:subject>
          <rdf:Bag>
            <rdf:li>cold</rdf:li>
            <rdf:li>icon</rdf:li>
            <rdf:li>thermometer</rdf:li>
            <rdf:li>weather</rdf:li>
          </rdf:Bag>
        </dc:subject>
      </cc:Work>
      <cc:License
         rdf:about="http://creativecommons.org/publicdomain/zero/1.0/">
        <cc:permits
           rdf:resource="http://creativecommons.org/ns#Reproduction" />
        <cc:permits
           rdf:resource="http://creativecommons.org/ns#Distribution" />
        <cc:permits
           rdf:resource="http://creativecommons.org/ns#DerivativeWorks" />
      </cc:License>
    </rdf:RDF>
  </metadata>
</svg>
