<?xml version="1.0" encoding="UTF-8" standalone="no"?>
<!-- Created with Inkscape (http://www.inkscape.org/) -->

<svg
   xmlns:dc="http://purl.org/dc/elements/1.1/"
   xmlns:cc="http://creativecommons.org/ns#"
   xmlns:rdf="http://www.w3.org/1999/02/22-rdf-syntax-ns#"
   xmlns:svg="http://www.w3.org/2000/svg"
   xmlns="http://www.w3.org/2000/svg"
   xmlns:sodipodi="http://sodipodi.sourceforge.net/DTD/sodipodi-0.dtd"
   xmlns:inkscape="http://www.inkscape.org/namespaces/inkscape"
   id="svg13195"
   sodipodi:docname="hot.svg"
   viewBox="0 0 32.242839 100.00124"
   version="1.1"
   inkscape:version="0.91 r13725"
   width="32.24284"
   height="100.00124">
  <defs
     id="defs13197">
    <linearGradient
       id="linearGradient12536"
       y2="706.16998"
       gradientUnits="userSpaceOnUse"
       x2="1480.7"
       y1="706.16998"
       x1="1387"
       inkscape:collect="always">
      <stop
         id="stop9459"
         style="stop-color:#d0d0d0"
         offset="0" />
      <stop
         id="stop9461"
         style="stop-color:#f2f2f2"
         offset="1" />
    </linearGradient>
    <linearGradient
       id="linearGradient12538"
       y2="711.47998"
       gradientUnits="userSpaceOnUse"
       x2="798.29999"
       gradientTransform="translate(610.33,-19.625)"
       y1="712.35999"
       x1="849.13"
       inkscape:collect="always">
      <stop
         id="stop9335"
         style="stop-color:#a00"
         offset="0" />
      <stop
         id="stop9337"
         style="stop-color:#f55"
         offset="1" />
    </linearGradient>
    <radialGradient
       id="radialGradient12540"
       gradientUnits="userSpaceOnUse"
       cy="806.77002"
       cx="1179.9"
       r="39.870998"
       inkscape:collect="always">
      <stop
         id="stop9329"
         style="stop-color:#ff2a2a"
         offset="0" />
      <stop
         id="stop9331"
         style="stop-color:#a00"
         offset="1" />
    </radialGradient>
    <linearGradient
       id="linearGradient12542"
       y2="693.08002"
       gradientUnits="userSpaceOnUse"
       x2="1186.5"
       gradientTransform="translate(244,-2)"
       y1="693.08002"
       x1="1170.7"
       inkscape:collect="always">
      <stop
         id="stop9384"
         style="stop-color:white"
         offset="0" />
      <stop
         id="stop9386"
         style="stop-color:white;stop-opacity:0"
         offset="1" />
    </linearGradient>
    <radialGradient
       id="radialGradient12544"
       gradientUnits="userSpaceOnUse"
       cy="1008.4"
       cx="1070.1"
       gradientTransform="matrix(1,0,0,0.2,0,806.69)"
       r="58.865002"
       inkscape:collect="always">
      <stop
         id="stop9469"
         style="stop-color:black"
         offset="0" />
      <stop
         id="stop9471"
         style="stop-color:black;stop-opacity:0"
         offset="1" />
    </radialGradient>
  </defs>
  <sodipodi:namedview
     id="base"
     bordercolor="#666666"
     inkscape:pageshadow="2"
     inkscape:window-y="24"
     fit-margin-left="0"
     pagecolor="#ffffff"
     fit-margin-top="0"
     inkscape:window-maximized="1"
     inkscape:zoom="2.8"
     inkscape:window-x="0"
     inkscape:window-height="1056"
     showgrid="false"
     borderopacity="1.0"
     inkscape:current-layer="layer1"
     inkscape:cx="52.288176"
     inkscape:cy="-0.20606146"
     fit-margin-right="0"
     fit-margin-bottom="0"
     inkscape:window-width="1920"
     inkscape:pageopacity="0.0"
     inkscape:document-units="px" />
  <g
     id="layer1"
     inkscape:label="Ebene 1"
     inkscape:groupmode="layer"
     transform="translate(-179.28523,-349.74505)">
    <rect
       x="179.28998"
       y="340.22003"
       width="110"
       height="110"
       style="color:#000000;opacity:0;stroke-width:6.80000019"
       id="rect9631" />
    <g
       transform="matrix(0.27387,0,0,0.27387,-197.41,202.34)"
       id="g9507">
      <g
         id="g9491">
        <path
           d="m 1430.5,538.23 c -11.987,0 -21.625,9.669 -21.625,21.656 l 0,227.5 c 0,0.052 -4e-4,0.10435 0,0.15625 -13.168,8.3005 -21.906,22.972 -21.906,39.688 0,25.892 20.983,46.875 46.875,46.875 25.892,0 46.875,-20.983 46.875,-46.875 0,-17.082 -9.1296,-32.024 -22.781,-40.219 l 0,-227.12 c 0,-11.987 -9.6376,-21.656 -21.625,-21.656 l -5.8124,0 z"
           inkscape:connector-curvature="0"
           style="color:#000000;opacity:0.98470998;fill:url(#linearGradient12536)"
           id="path9349" />
        <g
           transform="translate(0,10)"
           id="g9345">
          <path
             d="m 1409.5,625.66 0,152.97 c 0,11.987 9.6689,21.656 21.656,21.656 l 5.7813,0 c 11.987,0 21.656,-9.669 21.656,-21.656 l 0,-152.72 c -6.8688,1.3372 -15.103,2.125 -23.969,2.125 -9.3753,0 -18.031,-0.89378 -25.125,-2.375 z"
             inkscape:connector-curvature="0"
             style="color:#000000;opacity:0.98470998;fill:url(#linearGradient12538)"
             id="rect9247" />
          <circle
             r="39.871414"
             cy="817.95331"
             cx="1189.5702"
             transform="matrix(1.1758,0,0,1.1758,35.756,-143.29)"
             style="color:#000000;opacity:0.98470998;fill:url(#radialGradient12540)"
             id="path9249" />
        </g>
        <path
           inkscape:connector-curvature="0"
           style="color:#000000;text-indent:0;text-transform:none;block-progression:tb;opacity:0.98470998;fill:#333333"
           d="m 1430.2,538.47 c -12.525,0 -22.625,10.133 -22.625,22.656 l 0,227.16 c -13.174,8.5307 -21.906,23.332 -21.906,40.188 0,26.432 21.443,47.875 47.875,47.875 26.432,0 47.875,-21.443 47.875,-47.875 0,-17.221 -9.1262,-32.284 -22.781,-40.719 l 0,-226.62 c 0,-12.523 -10.1,-22.656 -22.625,-22.656 l -5.8124,0 z m 0,2 5.8124,0 c 11.45,0 20.625,9.2049 20.625,20.656 l 0,227.12 0,0.5625 0.5,0.28125 c 13.36,8.0202 22.281,22.65 22.281,39.375 0,25.352 -20.523,45.875 -45.875,45.875 -25.352,0 -45.875,-20.523 -45.875,-45.875 0,-16.367 8.5504,-30.72 21.438,-38.844 l 0.4688,-0.28125 0,-0.5625 c -4e-4,-0.0416 0,-0.0991 0,-0.15625 l 0,-227.5 c 0,-11.451 9.1753,-20.656 20.625,-20.656 z"
           id="path9353" />
        <rect
           x="1412.6"
           y="585.64001"
           width="16.110001"
           height="194.57001"
           ry="8.0551996"
           style="color:#000000;opacity:0.98470998;fill:url(#linearGradient12542)"
           id="rect9394" />
      </g>
      <ellipse
         ry="11.773046"
         rx="58.865231"
         cy="1008.3682"
         cx="1070.1079"
         transform="translate(364.21,-116.77)"
         style="color:#000000;opacity:0.5;fill:url(#radialGradient12544)"
         id="path9503" />
    </g>
  </g>
  <metadata
     id="metadata4295">
    <rdf:RDF>
      <cc:Work>
        <dc:format>image/svg+xml</dc:format>
        <dc:type
           rdf:resource="http://purl.org/dc/dcmitype/StillImage" />
        <cc:license
           rdf:resource="http://creativecommons.org/publicdomain/zero/1.0/" />
        <dc:publisher>
          <cc:Agent
             rdf:about="http://openclipart.org/">
            <dc:title>Openclipart</dc:title>
          </cc:Agent>
        </dc:publisher>
        <dc:title>weather icon - hot</dc:title>
        <dc:date>2012-06-14T11:20:00</dc:date>
        <dc:description />
        <dc:source>https://openclipart.org/detail/170672/weather-icon---hot-by-gnokii-170672</dc:source>
        <dc:creator>
          <cc:Agent>
            <dc:title>gnokii</dc:title>
          </cc:Agent>
        </dc:creator>
        <dc:subject>
          <rdf:Bag>
            <rdf:li>hot</rdf:li>
            <rdf:li>icon</rdf:li>
            <rdf:li>temperature</rdf:li>
            <rdf:li>thermometer</rdf:li>
            <rdf:li>weather</rdf:li>
          </rdf:Bag>
        </dc:subject>
      </cc:Work>
      <cc:License
         rdf:about="http://creativecommons.org/publicdomain/zero/1.0/">
        <cc:permits
           rdf:resource="http://creativecommons.org/ns#Reproduction" />
        <cc:permits
           rdf:resource="http://creativecommons.org/ns#Distribution" />
        <cc:permits
           rdf:resource="http://creativecommons.org/ns#DerivativeWorks" />
      </cc:License>
    </rdf:RDF>
  </metadata>
</svg>
