<?xml version="1.0" encoding="utf-8"?>
<!-- Generator: Adobe Illustrator 13.0.2, SVG Export Plug-In  -->
<!DOCTYPE svg PUBLIC "-//W3C//DTD SVG 1.1//EN" "http://www.w3.org/Graphics/SVG/1.1/DTD/svg11.dtd" [
	<!ENTITY ns_flows "http://ns.adobe.com/Flows/1.0/">
]>
<svg version="1.1"
	 xmlns="http://www.w3.org/2000/svg" xmlns:xlink="http://www.w3.org/1999/xlink" xmlns:a="http://ns.adobe.com/AdobeSVGViewerExtensions/3.0/"
	 x="0px" y="0px" width="256px" height="256px" viewBox="-14.019 -0.966 256 256" enable-background="new -14.019 -0.966 256 256"
	 xml:space="preserve">
<defs>
</defs>
<path display="none" fill="#CCD584" d="M88.458,168.164c0,0,2.015-13.12-11.341-17.711c-8-2.751-27.63-10.867-30.137-22.287
	c-0.684-3.111-7.241,10.729,9.093,17.377c14.114,5.744,18.196,6.303,23.36,8.845c9.552,4.699,8.29,13.53,8.653,14.88
	C88.123,169.411,88.458,168.164,88.458,168.164z"/>
<path display="none" fill="#CCD584" d="M99.69,165.465c0,0-0.202-14.173,14.599-17.066c8.864-1.732,30.819-7.43,35.148-19.139
	c1.181-3.189,6.08,12.41-12.171,17.041c-15.771,4.001-20.17,3.991-26.005,5.92c-10.793,3.567-10.757,13.09-11.339,14.466
	C99.861,166.83,99.69,165.465,99.69,165.465z"/>
<radialGradient id="SVGID_1_" cx="189.0967" cy="1763.2656" r="32.9219" gradientTransform="matrix(2.3908 0 0 0.3615 -331.96 -394.2896)" gradientUnits="userSpaceOnUse">
	<stop  offset="0" style="stop-color:#6D963E"/>
	<stop  offset="0.1372" style="stop-color:#93B170"/>
	<stop  offset="0.2788" style="stop-color:#B3C99B"/>
	<stop  offset="0.4226" style="stop-color:#CFDCBF"/>
	<stop  offset="0.5665" style="stop-color:#E4EBDB"/>
	<stop  offset="0.7104" style="stop-color:#F3F6EF"/>
	<stop  offset="0.8547" style="stop-color:#FCFDFB"/>
	<stop  offset="1" style="stop-color:#FFFFFF"/>
</radialGradient>
<path opacity="0.41" fill="url(#SVGID_1_)" d="M198.83,243.14c0,6.559-35.239,11.895-78.695,11.895
	c-43.464,0-78.695-5.336-78.695-11.895c0-6.576,35.231-11.912,78.695-11.912C163.591,231.228,198.83,236.563,198.83,243.14z"/>
<linearGradient id="SVGID_2_" gradientUnits="userSpaceOnUse" x1="121.6533" y1="212.5166" x2="122.8567" y2="-5.2634">
	<stop  offset="0" style="stop-color:#4A5B01"/>
	<stop  offset="0.1735" style="stop-color:#5C7101"/>
	<stop  offset="0.5402" style="stop-color:#7E9B02"/>
	<stop  offset="0.8283" style="stop-color:#93B502"/>
	<stop  offset="1" style="stop-color:#9BBF02"/>
</linearGradient>
<path fill="url(#SVGID_2_)" d="M122.25,0C64.26,0,17.074,47.176,17.074,105.168c0,59.491,48.164,109.744,105.176,109.744
	c57.007,0,105.169-50.253,105.169-109.744C227.419,47.176,180.24,0,122.25,0z"/>
<path fill="#CCD584" d="M38.643,114.516c0,44.445,36.024,85.174,80.472,85.174c44.441,0,80.458-40.729,80.458-85.174
	c0-44.448-36.017-80.475-80.458-80.475C74.667,34.041,38.643,70.068,38.643,114.516z"/>
<radialGradient id="SVGID_3_" cx="117.9219" cy="215.8164" r="56.9455" gradientTransform="matrix(3.0714 0 0 3.0714 -260.4131 -511.8129)" gradientUnits="userSpaceOnUse">
	<stop  offset="0" style="stop-color:#FFFFFF"/>
	<stop  offset="0.2218" style="stop-color:#FCFDF6"/>
	<stop  offset="0.5765" style="stop-color:#F4F7DF"/>
	<stop  offset="1" style="stop-color:#E7EEBB"/>
</radialGradient>
<path fill="url(#SVGID_3_)" d="M44.69,118.139c0,40.094,32.509,77.313,72.603,77.313c40.093,0,72.61-37.219,72.61-77.313
	s-32.518-72.603-72.61-72.603C77.199,45.536,44.69,78.045,44.69,118.139z"/>
<path fill="#F7FAEF" d="M123.172,131.524c24.821-14.7,38.659-8.479,38.659-8.479c13.213,7.628,7.718,21.996,7.718,21.996
	c-14.599,43.644-49.281,21.205-49.281,21.205s-4.61-2.711-6.944-4.832C109.067,142.822,116.553,135.446,123.172,131.524z"/>
<path fill="#F7FAEF" d="M91.415,137.486c-17.851-14.907-29.668-11.75-29.668-11.75c-11.487,4.366-8.989,16.508-8.989,16.508
	c5.971,36.634,36.488,23.25,36.488,23.25s4.019-1.56,6.138-2.937C101.186,148.314,96.185,141.471,91.415,137.486z"/>
<path fill="#DFE677" d="M166.628,128.972c0,0,7.908,33.281-25.94,34.949c0,0-13.239,0.417-25.435-1.925L166.628,128.972z"/>
<path fill="#DFE677" d="M56.001,134.063c0,0-8.743,24.604,18.51,27.691c0,0,8.621,1.012,19.714,0.693L56.001,134.063z"/>
<linearGradient id="SVGID_4_" gradientUnits="userSpaceOnUse" x1="75.979" y1="171.9014" x2="75.979" y2="79.0423">
	<stop  offset="0" style="stop-color:#4A5B01"/>
	<stop  offset="0.1735" style="stop-color:#5C7101"/>
	<stop  offset="0.5402" style="stop-color:#7E9B02"/>
	<stop  offset="0.8283" style="stop-color:#93B502"/>
	<stop  offset="1" style="stop-color:#9BBF02"/>
</linearGradient>
<path fill="url(#SVGID_4_)" d="M56.245,133.287l0.7-0.342c12.472-4.186,24.481,0.787,28.575,3.158
	c8.406,4.88,11.88,15.557,10.51,24.385c-0.232,1.462-0.826,2.104-1.805,1.96l-1.186-1.077c-1.579-1.43-4.663-2.407-9.206-2.805
	c-22.203-3.292-30.06-10.182-27.832-24.503L56.245,133.287z"/>
<linearGradient id="SVGID_5_" gradientUnits="userSpaceOnUse" x1="140.0186" y1="172.1377" x2="140.0186" y2="77.415">
	<stop  offset="0" style="stop-color:#4A5B01"/>
	<stop  offset="0.1735" style="stop-color:#5C7101"/>
	<stop  offset="0.5402" style="stop-color:#7E9B02"/>
	<stop  offset="0.8283" style="stop-color:#93B502"/>
	<stop  offset="1" style="stop-color:#9BBF02"/>
</linearGradient>
<path fill="url(#SVGID_5_)" d="M166.628,128.972l-0.845-0.438c-17.727-5.208-32.087-1.03-37.55,1.554
	c-11.193,5.308-15.871,17.859-15.061,29.217c0.132,1.884,0.825,2.781,2.08,2.691l1.249-0.775c6.016-3.159,9.926-3.46,12.797-3.488
	c29.127-2.597,38.838-9.52,37.543-27.752L166.628,128.972z"/>
<linearGradient id="SVGID_6_" gradientUnits="userSpaceOnUse" x1="101.6104" y1="174.7354" x2="102.787" y2="121.7832">
	<stop  offset="0" style="stop-color:#4A5B01"/>
	<stop  offset="0.1735" style="stop-color:#5C7101"/>
	<stop  offset="0.5402" style="stop-color:#7E9B02"/>
	<stop  offset="0.8283" style="stop-color:#93B502"/>
	<stop  offset="1" style="stop-color:#9BBF02"/>
</linearGradient>
<path fill="url(#SVGID_6_)" d="M99.846,173.865l0.136,0.049l2.613-1.457l0.705-0.623c0.887-1.079,1.031-2.185,0.416-3.303
	c-0.105-0.172-0.21-0.221-0.334-0.156l-1.8,0.99c-2.212,1.245-2.827,2.753-1.831,4.557L99.846,173.865z"/>
<linearGradient id="SVGID_7_" gradientUnits="userSpaceOnUse" x1="108.8076" y1="174.8877" x2="109.9841" y2="121.9444">
	<stop  offset="0" style="stop-color:#4A5B01"/>
	<stop  offset="0.1735" style="stop-color:#5C7101"/>
	<stop  offset="0.5402" style="stop-color:#7E9B02"/>
	<stop  offset="0.8283" style="stop-color:#93B502"/>
	<stop  offset="1" style="stop-color:#9BBF02"/>
</linearGradient>
<path fill="url(#SVGID_7_)" d="M106.996,168.313c-1.028,1.791-0.436,3.317,1.759,4.584l1.784,1.024
	c0.117,0.064,0.234,0.017,0.339-0.155c0.628-1.101,0.507-2.202-0.354-3.304l-0.716-0.631l-2.582-1.502l-0.137,0.038L106.996,168.313
	z"/>
<path fill="#FFFFFF" d="M37.979,219.005c-12.357,1.352-20.952-0.045-27.041-4.402c-4.542-3.25-4.619-6.796-4.686-9.929
	c-0.046-2.022-0.083-3.77-1.229-5.633c-2.397-3.897-1.657-7.363-1.119-9.893c0.362-1.691,0.562-2.77,0.174-3.615
	c-2.111-4.591-3.661-12.6,0.718-15.838c2.764-2.046,4.544-4.399,6.605-11.582c1.306-4.552,5.744-7.567,12.177-8.271
	c0.596-0.067,1.095-0.098,1.454-0.112c0.154-0.15,0.356-0.421,0.47-0.871c0.265-1.052,0.207-3.568-3.206-8.61
	c-7.232-10.697-3.249-17.574-2.483-18.712l1.333-2.449l0.093-0.171l0.125-0.15c1.51-1.814,3.405-2.895,5.484-3.121
	c2.588-0.285,5.327,0.748,7.715,2.907c2.969,2.684,4.794,6.554,4.767,10.099c-0.052,6.301,3.352,11.251,3.388,11.301
	c6.818,9.63,6.865,13.944,6.804,14.712l-0.013,0.149c4,1.333,6.189,2.43,6.33,2.504l0.058,0.027l0.056,0.032
	c8.849,5.239,7.589,11.566,7.112,13.952c-0.038,0.182-0.086,0.432-0.094,0.516c-0.16,1.8-1.743,4.627-5.447,5.031
	c-0.277,0.031-0.56,0.046-0.849,0.047c1.395,1.921,1.436,3.999,1.281,6.621l-0.027,0.464c-0.141,2.473-1.363,4.589-3.247,5.915
	c0.511,0.335,0.947,0.741,1.311,1.229c1.257,1.676,1.516,4.038,0.812,7.437c-0.565,2.738-1.914,4.709-4.083,5.942l0.067,0.572
	C54.031,216.423,48.022,217.906,37.979,219.005L37.979,219.005z"/>
<path fill="#4A5B01" d="M27.065,117.629c4.973-0.544,10.313,5.555,10.271,11.007c-0.058,7.065,3.75,12.461,3.75,12.461
	c6.751,9.537,6.447,13.41,6.447,13.41l-4.352-0.873c-5.013-1.516-7.844-1.762-9.44-1.587c-1.478,0.16-1.898,0.682-2.008,0.888
	c-0.081,0.04-0.035,0.087-0.035,0.087s0.008-0.033,0.035-0.087c0.032-0.012,0.083-0.026,0.161-0.035
	c0.532-0.059,2.354,0.095,8.46,1.46c9.363,2.088,14.583,4.733,14.583,4.733c8.658,5.125,6.185,11.001,6.046,12.574
	c-0.089,1.006-1.098,2.943-3.677,3.226c-1.449,0.159-3.393-0.207-5.95-1.551c-7.102-3.737-14.828-3.204-18.126-3.468
	c-0.598-0.047-1.09-0.038-1.491,0.005c-1.807,0.197-1.81,1.137-1.81,1.137c7.999,0.526,15.704,1.24,21.152,4.068
	c5.446,2.83,5.068,5.052,4.855,8.812c-0.167,3.009-2.426,5.146-5.28,5.459c-0.714,0.079-1.466,0.042-2.231-0.122
	c-3.828-0.827-9.076-0.409-13.124-1.837c-4.797-1.687-7.723-1.729-9.119-1.576c-0.678,0.075-0.997,0.192-0.997,0.192
	s5.809,1.855,8.712,2.785c2.903,0.928,13.739,1.767,17.036,2.027c3.297,0.264,5.039,1.941,3.919,7.356
	c-0.826,3.998-3.546,5.403-7.236,5.805c-1.312,0.145-2.746,0.163-4.26,0.122c-5.778-0.145-11.429-2.018-15.566-2.812
	c-1.181-0.227-2.01-0.261-2.593-0.199c-1.457,0.16-1.371,0.945-1.371,0.945s3.843,0.98,13.256,3.066
	c4.955,1.097,8.494,1.098,10.737,0.852c2.019-0.22,2.987-0.642,2.987-0.642c1.009,9.231-2.889,10.592-13.043,11.702
	c-10.153,1.109-19.244,0.548-25.664-4.044c-6.419-4.591-1.966-9.437-5.376-14.979c-3.409-5.544,0.804-9.742-0.831-13.299
	c-1.636-3.557-3.366-10.842,0.092-13.399c3.457-2.559,5.309-5.562,7.336-12.635c1.485-5.187,7.419-6.505,10.474-6.84
	c1.11-0.122,1.842-0.111,1.842-0.111s5.371-2.146-1.685-12.583c-7.059-10.438-2.435-16.548-2.435-16.548l1.385-2.541
	C24.158,118.532,25.595,117.79,27.065,117.629 M26.631,113.663c-2.602,0.284-4.954,1.609-6.799,3.83l-0.249,0.299l-0.186,0.343
	l-1.288,2.361c-0.536,0.813-1.688,2.884-1.995,6.062c-0.456,4.708,1.069,9.69,4.528,14.81c2.229,3.293,2.891,5.428,2.958,6.468
	c-0.079,0.007-0.159,0.016-0.241,0.024c-7.279,0.797-12.337,4.333-13.877,9.705c-1.913,6.672-3.419,8.711-5.875,10.528
	c-5.75,4.253-3.395,13.814-1.345,18.274c0.133,0.287-0.144,1.589-0.309,2.365c-0.575,2.698-1.447,6.777,1.368,11.356
	c0.824,1.335,0.888,2.568,0.933,4.631c0.072,3.239,0.168,7.677,5.521,11.507c6.515,4.657,15.545,6.173,28.419,4.763
	c6.065-0.662,9.889-1.436,12.712-3.611c4.081-3.148,4.269-8.125,3.931-11.84c2.02-1.518,3.333-3.703,3.92-6.547
	c0.815-3.936,0.436-6.889-1.16-9.024c1.354-1.574,2.195-3.593,2.323-5.848l0.026-0.455c0.109-1.851,0.124-3.573-0.341-5.207
	c3.22-1.069,5.096-3.824,5.347-6.385c0.015-0.103,0.041-0.218,0.067-0.354c0.499-2.498,2.015-10.097-8.052-16.057l-0.113-0.065
	l-0.117-0.06c-0.129-0.066-1.961-0.987-5.292-2.165c-0.303-2.292-1.684-6.918-7.095-14.565c-0.133-0.192-3.071-4.617-3.028-10.137
	c0.034-4.1-2.045-8.544-5.425-11.598C33.085,114.526,29.794,113.317,26.631,113.663L26.631,113.663z"/>
<path fill="#FFFFFF" d="M171.636,230.42c12.346,3.365,21.308,3.329,28.2-0.118c5.142-2.571,5.792-6.164,6.365-9.337
	c0.372-2.05,0.69-3.819,2.157-5.529c3.065-3.575,2.871-7.218,2.73-9.877c-0.094-1.776-0.125-2.905,0.408-3.705
	c2.884-4.325,5.751-12.216,1.82-16.216c-2.479-2.523-3.91-5.201-4.847-12.837c-0.596-4.84-4.618-8.619-11.046-10.373
	c-0.596-0.162-1.097-0.273-1.46-0.348c-0.133-0.177-0.294-0.483-0.338-0.96c-0.101-1.111,0.365-3.661,4.647-8.237
	c9.075-9.708,6.136-17.342,5.54-18.623l-0.96-2.703l-0.068-0.189l-0.103-0.173c-1.241-2.089-2.995-3.491-5.069-4.057
	c-2.585-0.706-5.537-0.098-8.312,1.71c-3.451,2.25-5.931,5.892-6.474,9.501c-0.964,6.41-5.222,10.896-5.266,10.939
	c-8.483,8.691-9.229,13.07-9.289,13.86l-0.011,0.152c-4.28,0.711-6.684,1.475-6.839,1.525l-0.063,0.021l-0.061,0.023
	c-9.842,3.899-9.58,10.537-9.48,13.037c0.008,0.191,0.017,0.455,0.012,0.54c-0.127,1.854,1.026,4.984,4.729,5.993
	c0.276,0.075,0.561,0.135,0.854,0.184c-1.729,1.727-2.105,3.833-2.369,6.524l-0.048,0.476c-0.257,2.536,0.645,4.885,2.347,6.537
	c-0.571,0.257-1.083,0.603-1.53,1.037c-1.55,1.502-2.192,3.862-2.027,7.43c0.136,2.876,1.188,5.095,3.195,6.7l-0.161,0.57
	C155.737,225.207,161.605,227.685,171.636,230.42L171.636,230.42z"/>
<path fill="#4A5B01" d="M199.073,129.119c1.47,0.401,2.811,1.387,3.844,3.125l0.997,2.805c0,0,3.717,6.957-5.141,16.431
	c-8.856,9.472-3.742,12.52-3.742,12.52s0.745,0.108,1.854,0.411c3.053,0.833,8.87,3.128,9.546,8.642
	c0.923,7.516,2.32,10.868,5.421,14.026c3.104,3.157,0.169,10.285-2.065,13.638c-2.235,3.353,1.37,8.299-2.989,13.385
	s-0.614,10.73-7.88,14.363s-16.598,2.739-26.741-0.027c-10.144-2.766-13.889-4.777-11.374-13.998c0,0,0.915,0.584,2.933,1.134
	c2.239,0.609,5.839,1.181,11.052,0.865c9.906-0.604,13.973-0.98,13.973-0.98s0.213-0.784-1.242-1.181
	c-0.583-0.159-1.432-0.258-2.669-0.217c-4.333,0.139-10.382,1.133-16.277,0.35c-1.547-0.204-3.002-0.453-4.312-0.81
	c-3.687-1.006-6.225-2.872-6.421-7.069c-0.264-5.687,1.775-7.111,5.171-6.848c3.395,0.267,14.544,1.161,17.645,0.685
	c3.102-0.476,9.306-1.425,9.306-1.425s-0.304-0.173-0.979-0.357c-1.396-0.379-4.377-0.81-9.526,0.134
	c-4.345,0.796-9.613-0.474-13.637-0.251c-0.805,0.045-1.575-0.039-2.287-0.234c-2.854-0.776-4.804-3.316-4.49-6.401
	c0.391-3.856,0.364-6.177,6.356-8.174c5.994-1.999,13.944-1.481,22.161-0.728c0,0,0.147-0.954-1.657-1.446
	c-0.4-0.11-0.898-0.196-1.516-0.246c-3.396-0.264-11.165-2.053-18.988,0.604c-2.814,0.955-4.85,1.012-6.297,0.618
	c-2.576-0.703-3.289-2.836-3.218-3.873c0.112-1.622-1.453-7.992,8.175-11.806c0,0,5.731-1.851,15.587-2.465
	c6.426-0.402,8.305-0.265,8.835-0.12c0.079,0.021,0.129,0.044,0.157,0.063c0.021,0.059,0.022,0.093,0.022,0.093
	s0.053-0.04-0.022-0.093c-0.077-0.227-0.421-0.824-1.896-1.228c-1.596-0.434-4.513-0.641-9.854,0.091l-4.564,0.188
	c0,0,0.315-3.985,8.717-12.594c0,0,4.74-4.871,5.821-12.063C187.693,133.103,194.107,127.765,199.073,129.119 M200.154,125.156
	c-3.159-0.862-6.701-0.162-9.974,1.97c-3.927,2.562-6.757,6.744-7.383,10.918c-0.847,5.616-4.548,9.641-4.715,9.816
	c-6.731,6.901-8.88,11.383-9.56,13.663c-3.575,0.66-5.586,1.3-5.729,1.347l-0.128,0.041l-0.124,0.048
	c-11.194,4.438-10.88,12.408-10.773,15.027c0.003,0.142,0.012,0.265,0.012,0.37c-0.16,2.643,1.304,5.747,4.404,7.354
	c-0.732,1.584-0.998,3.338-1.187,5.237l-0.045,0.467c-0.234,2.312,0.295,4.501,1.419,6.318c-1.966,1.915-2.83,4.855-2.637,8.987
	c0.14,2.986,1.121,5.421,2.932,7.287c-0.942,3.722-1.554,8.812,2.088,12.672c2.521,2.666,6.28,4.067,12.342,5.721
	c12.861,3.506,22.285,3.423,29.659-0.263c6.06-3.03,6.873-7.526,7.467-10.807c0.379-2.091,0.644-3.332,1.696-4.56
	c3.599-4.201,3.371-8.487,3.222-11.323c-0.043-0.816-0.115-2.185,0.065-2.455c2.803-4.205,6.737-13.543,1.578-18.795
	c-2.203-2.242-3.406-4.558-4.275-11.648c-0.699-5.711-5.271-10.121-12.542-12.104c-0.082-0.022-0.161-0.044-0.242-0.064
	c0.237-1.046,1.254-3.108,4.05-6.098c4.343-4.645,6.696-9.466,6.991-14.324c0.201-3.28-0.636-5.573-1.05-6.485l-0.928-2.607
	l-0.135-0.379l-0.203-0.343C204.931,127.589,202.754,125.865,200.154,125.156L200.154,125.156z"/>
</svg>
