<?xml version="1.0" encoding="utf-8"?>
<!-- Generator: Adobe Illustrator 15.0.2, SVG Export Plug-In . SVG Version: 6.00 Build 0)  -->
<!DOCTYPE svg PUBLIC "-//W3C//DTD SVG 1.1//EN" "http://www.w3.org/Graphics/SVG/1.1/DTD/svg11.dtd">
<svg version="1.1" id="Layer_1" xmlns="http://www.w3.org/2000/svg" xmlns:xlink="http://www.w3.org/1999/xlink" x="0px" y="0px"
	 width="256px" height="256px" viewBox="0 0 256 256" enable-background="new 0 0 256 256" xml:space="preserve">
<radialGradient id="SVGID_1_" cx="3.8945" cy="243.3652" r="80.8232" gradientTransform="matrix(1 0 0 -1 78 374)" gradientUnits="userSpaceOnUse">
	<stop  offset="0" style="stop-color:#C5E2C7"/>
	<stop  offset="0.9016" style="stop-color:#FFFFFF"/>
</radialGradient>
<circle fill="url(#SVGID_1_)" cx="81.895" cy="130.635" r="80.823"/>
<radialGradient id="SVGID_2_" cx="95.6294" cy="243.3652" r="80.823" gradientTransform="matrix(1 0 0 -1 78 374)" gradientUnits="userSpaceOnUse">
	<stop  offset="0" style="stop-color:#C5E2C7"/>
	<stop  offset="0.9016" style="stop-color:#FFFFFF"/>
</radialGradient>
<circle fill="url(#SVGID_2_)" cx="173.628" cy="130.635" r="80.823"/>
<path fill="#FFFFFF" d="M179.42,171.45c-15.422-0.773-25.896-2.231-33.071-12.581s-9.929-20.906-11.664-24.795
	c-1.738-3.889-3.229-4.255-5.732-4.363c-2.503-0.109-4.019,0.127-6.088,3.85s-5.729,14.001-13.777,23.685
	c-8.047,9.687-18.61,10.229-34.041,9.656c-2.524-0.095-4.735-0.402-6.683-0.861l0.35,2.475c1.827,5.502,5.44,58.853,60.247,58.853
	c29.515,0,44.182-15.473,51.722-30.609c3.837-7.707,6.438-17.892,8.169-26.118C186.271,171.297,183.166,171.639,179.42,171.45z"/>
<path fill="#FFFFFF" d="M182.45,112.252c0-1.992,0.734-3.81,1.942-5.208c-1.904-1.284-3.367-3.161-4.149-5.362
	c-1.086,0.826-2.427,1.336-3.899,1.336c-2.814,0-5.201-1.798-6.097-4.304c-2.51,2.237-5.821,3.599-9.448,3.599
	c-6.615,0-12.175-4.518-13.762-10.636c-1.858,0.652-3.852,1.011-5.934,1.011c-5.089,0-9.68-2.125-12.943-5.534
	c-3.612,4.374-9.075,7.163-15.191,7.163c-1.332,0-2.633-0.134-3.889-0.386c-3.287,4.222-8.414,6.941-14.177,6.941
	c-1.534,0-3.022-0.193-4.444-0.555c-0.028,4.746-2.658,8.863-6.53,11.027c10.363,0.693,18.974,2.262,24.878,3.941
	c12.491,3.555,20.596,4.12,20.596,4.12s8.122,0.143,20.874-2.312c7.486-1.441,19.114-2.347,32.95-1.418
	C182.733,114.637,182.45,113.48,182.45,112.252z"/>
<path fill="#FFFFFF" d="M150.277,117.092c-12.752,2.455-20.874,2.312-20.874,2.312s-8.105-0.564-20.596-4.12
	c-12.489-3.553-37.042-6.632-64.845-1.924l0.396,11.659c0,0,3.919-0.131,4.477,3.207c0.556,3.336,5.072,24.105,5.955,26.853
	c0.884,2.751,4.829,11.251,20.258,11.822c15.43,0.572,25.992,0.029,34.041-9.656c8.048-9.684,11.709-19.964,13.777-23.685
	c2.069-3.723,3.583-3.959,6.088-3.85c2.503,0.108,3.993,0.475,5.732,4.363c1.735,3.889,4.488,14.445,11.664,24.795
	s17.648,11.808,33.071,12.581c15.422,0.771,20.091-7.354,21.209-10.017c1.119-2.66,7.424-22.957,8.269-26.232s4.74-2.805,4.74-2.805
	l1.407-11.58C187.758,113.707,163.028,114.637,150.277,117.092z"/>
<g>
	<g>
		
			<radialGradient id="SVGID_3_" cx="76.5181" cy="330.4316" r="88.0049" gradientTransform="matrix(1 0 0 -1 78 374)" gradientUnits="userSpaceOnUse">
			<stop  offset="0" style="stop-color:#656565"/>
			<stop  offset="1" style="stop-color:#000000"/>
		</radialGradient>
		<path fill="url(#SVGID_3_)" d="M180.684,196.758c-7.539,15.137-22.207,30.609-51.721,30.609c-54.807,0-58.42-53.351-60.247-58.853
			l-0.35-2.475c-2.2-0.518-4.056-1.226-5.619-2.048l0.745,5.264l0.066,0.471l0.152,0.452c0.097,0.326,0.326,1.529,0.529,2.592
			c1.327,6.974,4.088,21.488,13.176,34.673c11.522,16.721,28.866,25.199,51.55,25.199c26.003,0,45.521-11.596,56.443-33.532
			c4.71-9.454,7.564-21.918,9.335-30.948c-1.559,0.991-3.497,1.871-5.889,2.479C187.121,178.866,184.521,189.051,180.684,196.758z"
			/>
		<g>
			
				<radialGradient id="SVGID_4_" cx="76.5186" cy="330.3896" r="87.9837" gradientTransform="matrix(1 0 0 -1 78 374)" gradientUnits="userSpaceOnUse">
				<stop  offset="0" style="stop-color:#656565"/>
				<stop  offset="1" style="stop-color:#000000"/>
			</radialGradient>
			<path fill="url(#SVGID_4_)" d="M118.736,210.175c0,0,3.383,2.254,5.978-0.338c2.594-2.597,4.06,1.578,2.03,2.481
				c-2.03,0.901-4.06,2.366-6.655,0.901c-2.593-1.466-4.028-1.86-3.158-3.383C117.383,209.046,118.171,209.837,118.736,210.175z"/>
			
				<radialGradient id="SVGID_5_" cx="76.519" cy="330.4189" r="87.9987" gradientTransform="matrix(1 0 0 -1 78 374)" gradientUnits="userSpaceOnUse">
				<stop  offset="0" style="stop-color:#656565"/>
				<stop  offset="1" style="stop-color:#000000"/>
			</radialGradient>
			<path fill="url(#SVGID_5_)" d="M132.355,201.985c0,0,1.643-0.469,2.17,0.469c0.527,0.938-0.352,1.466-1.114,1.76
				c-0.762,0.294-8.031,0.645-13.365-1.054c-5.334-1.701-8.323-3.87-7.914-4.982c0.411-1.115,0.997-0.765,2.228,0
				c1.231,0.761,7.446,3.224,10.318,3.574C127.55,202.103,131.654,201.808,132.355,201.985z"/>
			
				<radialGradient id="SVGID_6_" cx="76.5181" cy="330.4609" r="88.0251" gradientTransform="matrix(1 0 0 -1 78 374)" gradientUnits="userSpaceOnUse">
				<stop  offset="0" style="stop-color:#656565"/>
				<stop  offset="1" style="stop-color:#000000"/>
			</radialGradient>
			<path fill="url(#SVGID_6_)" d="M123.27,164.879c0,0,1.173,2.228,4.045,1.816c2.872-0.412,4.28-3.224,5.921-2.404
				c1.642,0.822,0.938,2.053,0.352,2.641c-0.588,0.586-3.282,2.872-6.272,2.402c-2.989-0.467-3.928-1.347-5.217-2.697
				c-1.289-1.349-0.177-2.169-0.177-2.169S122.736,164.183,123.27,164.879z"/>
		</g>
	</g>
	
		<radialGradient id="SVGID_7_" cx="76.5181" cy="330.4316" r="88.004" gradientTransform="matrix(1 0 0 -1 78 374)" gradientUnits="userSpaceOnUse">
		<stop  offset="0" style="stop-color:#656565"/>
		<stop  offset="1" style="stop-color:#000000"/>
	</radialGradient>
	<path fill="url(#SVGID_7_)" d="M59.384,110.834c0,0.214,0.019,0.424,0.032,0.636c8.848-0.677,17.133-0.629,24.521-0.132
		c3.868-2.167,6.493-6.28,6.522-11.022c1.42,0.362,2.909,0.557,4.443,0.557c5.763,0,10.891-2.721,14.175-6.943
		c1.259,0.252,2.557,0.388,3.89,0.388c6.116,0,11.581-2.79,15.193-7.163c3.262,3.407,7.851,5.533,12.941,5.533
		c2.083,0,4.075-0.359,5.935-1.01c1.586,6.117,7.146,10.635,13.761,10.635c3.627,0,6.938-1.359,9.448-3.599
		c0.896,2.506,3.282,4.305,6.097,4.305c1.473,0,2.813-0.511,3.899-1.336c0.782,2.201,2.245,4.079,4.149,5.362
		c-1.208,1.399-1.942,3.218-1.942,5.211c0,1.222,0.281,2.376,0.774,3.411c4.312,0.29,8.839,0.761,13.523,1.449
		c1.036-1.346,1.661-3.029,1.661-4.86c0-1.993-0.736-3.812-1.942-5.211c2.884-1.943,4.78-5.238,4.78-8.976
		c0-5.208-3.681-9.554-8.581-10.583c0.827-1.643,1.301-3.493,1.301-5.458c0-6.557-5.199-11.898-11.7-12.131
		c0.665-1.344,1.038-2.854,1.038-4.453c0-2.85-1.186-5.422-3.089-7.253c0.468-0.904,0.863-1.856,1.164-2.858
		c2.975-9.866-3.562-20.562-14.603-23.891c-10.327-3.114-20.935,1.322-24.695,9.983c-2.448-4.653-8.722-7.966-16.082-7.966
		c-8.763,0-15.986,4.695-17.039,10.763c-1.239-0.259-2.523-0.397-3.838-0.397c-8.731,0-16.061,5.999-18.095,14.096
		c-1.454-0.403-2.982-0.62-4.562-0.62c-9.405,0-17.029,7.623-17.029,17.028c0,3.323,0.955,6.422,2.603,9.042
		c-0.078-0.001-0.154-0.012-0.233-0.012c-3.763,0-6.812,3.051-6.812,6.812c0,2.962,1.895,5.474,4.535,6.411
		c-0.348,1.16-0.536,2.388-0.536,3.657c0,0.513,0.038,1.013,0.098,1.508C61.717,103.386,59.384,106.833,59.384,110.834z"/>
</g>
<path fill="none" d="M114.916,135.42c0,0,3.811-11.475-4.588-14.452c-10.661-3.775-25.783-6.64-42.762-4.371
	c-13.022,1.742-12.049,13.927-12.065,16.635c0,0,0.822,20.623,5.355,24.519c5.9,5.073,10.399,5.472,19.213,5.856
	c8.816,0.385,21.379-2.381,26.772-10.977C112.23,144.035,114.1,137.995,114.916,135.42z"/>
<path fill="none" d="M141.786,136.592c0,0-2.798-11.764,5.829-13.998c10.948-2.833,26.264-4.374,42.977-0.636
	c12.822,2.869,10.793,14.921,10.574,17.622c0,0-2.61,20.47-7.467,23.962c-6.319,4.54-10.836,4.545-19.648,4.16
	c-8.817-0.385-21.092-4.23-25.717-13.263C143.711,145.408,142.374,139.227,141.786,136.592z"/>
<g>
	<path fill="#CC0000" d="M190.907,121.972c-16.713-3.737-32.031-2.197-42.978,0.636c-8.626,2.234-5.829,13.998-5.829,13.998
		c0.588,2.635,1.926,8.816,6.548,17.848c4.626,9.031,16.903,12.879,25.716,13.264c8.815,0.384,13.329,0.379,19.648-4.162
		c4.855-3.489,7.469-23.958,7.469-23.958C201.7,136.896,203.729,124.84,190.907,121.972z"/>
	<path fill="#CC0000" d="M110.668,120.984c-10.661-3.775-25.785-6.643-42.762-4.372c-13.022,1.743-12.048,13.928-12.065,16.636
		c0,0,0.821,20.619,5.354,24.518c5.9,5.075,10.398,5.473,19.213,5.856c8.815,0.383,21.379-2.382,26.771-10.976
		c5.393-8.598,7.262-14.638,8.077-17.212C115.257,135.437,119.068,123.96,110.668,120.984z"/>
</g>
<g>
	<g>
		<circle fill="#FFFFFF" cx="85.333" cy="136.864" r="3.131"/>
		<path fill="#FFFFFF" d="M85.069,142.926c3.342,0.146,6.18-2.456,6.326-5.798c0.146-3.343-2.456-6.181-5.798-6.327
			c-3.343-0.145-6.181,2.457-6.326,5.799C79.125,139.942,81.726,142.781,85.069,142.926z M85.564,131.576
			c2.915,0.127,5.186,2.602,5.059,5.518c-0.127,2.916-2.604,5.185-5.519,5.058c-2.917-0.128-5.186-2.603-5.058-5.52
			C80.172,133.718,82.647,131.449,85.564,131.576z"/>
		<path fill="#FFFFFF" d="M84.929,146.156c5.125,0.226,9.477-3.764,9.699-8.887c0.225-5.127-3.764-9.479-8.89-9.702
			c-5.125-0.224-9.478,3.764-9.7,8.889C75.815,141.584,79.804,145.936,84.929,146.156z M85.688,128.754
			c4.471,0.195,7.949,3.99,7.754,8.463c-0.194,4.471-3.99,7.949-8.462,7.756c-4.471-0.195-7.95-3.99-7.755-8.462
			C77.42,132.037,81.216,128.561,85.688,128.754z"/>
		<path fill="#FFFFFF" d="M84.697,151.47c8.052,0.351,14.89-5.917,15.24-13.97c0.352-8.054-5.915-14.892-13.968-15.242
			c-8.052-0.351-14.888,5.917-15.241,13.97C70.378,144.279,76.645,151.117,84.697,151.47z M85.86,124.782
			c6.663,0.29,11.845,5.947,11.556,12.607c-0.29,6.662-5.945,11.848-12.608,11.557c-6.661-0.29-11.846-5.947-11.554-12.608
			C73.542,129.675,79.198,124.49,85.86,124.782z"/>
		<path fill="#FFFFFF" d="M75.18,115.945c-7.426,3.62-12.697,11.088-13.082,19.906c-0.558,12.812,9.412,23.69,22.224,24.25
			c12.812,0.559,23.691-9.411,24.249-22.224c0.362-8.355-3.763-15.864-10.22-20.247C91.455,116.252,83.616,115.501,75.18,115.945z
			 M103.018,137.634c-0.426,9.751-8.704,17.34-18.454,16.914c-9.751-0.425-17.336-8.704-16.912-18.455
			c0.425-9.75,8.704-17.337,18.454-16.912C95.854,119.605,103.442,127.883,103.018,137.634z"/>
		<path fill="#FFFFFF" d="M112.667,138.055c-0.103,2.349-0.5,4.613-1.153,6.764c2.17-4.462,3.175-7.685,3.713-9.384
			c0,0,3.811-11.475-4.588-14.452c-1.286-0.455-2.64-0.896-4.051-1.317C110.647,124.676,112.97,131.121,112.667,138.055z"/>
		<path fill="#FFFFFF" d="M58,135.674c0.328-7.489,3.651-14.15,8.762-18.879c-11.846,2.272-10.933,13.824-10.949,16.453
			c0,0,0.822,20.619,5.354,24.52c5.688,4.89,10.087,5.434,18.293,5.812C66.719,160.785,57.412,149.141,58,135.674z"/>
	</g>
	<g>
		<circle fill="#FFFFFF" cx="171.414" cy="140.615" r="3.131"/>
		<path fill="#FFFFFF" d="M171.15,146.678c3.343,0.145,6.18-2.456,6.326-5.8c0.146-3.342-2.456-6.181-5.797-6.326
			c-3.343-0.147-6.182,2.456-6.326,5.8C165.206,143.693,167.808,146.532,171.15,146.678z M171.645,135.326
			c2.916,0.129,5.186,2.604,5.058,5.52c-0.126,2.914-2.601,5.184-5.517,5.057c-2.916-0.128-5.186-2.603-5.058-5.52
			C166.253,137.469,168.729,135.198,171.645,135.326z"/>
		<path fill="#FFFFFF" d="M171.009,149.908c5.126,0.226,9.478-3.764,9.701-8.889c0.222-5.127-3.765-9.479-8.892-9.701
			c-5.125-0.225-9.477,3.764-9.701,8.891C161.896,145.335,165.885,149.686,171.009,149.908z M171.769,132.505
			c4.47,0.194,7.949,3.99,7.754,8.462c-0.193,4.472-3.99,7.951-8.461,7.756c-4.472-0.195-7.949-3.992-7.755-8.461
			C163.501,135.789,167.298,132.312,171.769,132.505z"/>
		<path fill="#FFFFFF" d="M170.777,155.22c8.054,0.351,14.891-5.916,15.241-13.97c0.35-8.053-5.915-14.892-13.969-15.241
			c-8.054-0.352-14.89,5.915-15.241,13.969C156.458,148.031,162.725,154.869,170.777,155.22z M171.941,128.534
			c6.66,0.29,11.845,5.947,11.554,12.606c-0.289,6.662-5.945,11.846-12.607,11.556s-11.845-5.945-11.556-12.608
			C159.623,133.428,165.279,128.242,171.941,128.534z"/>
		<path fill="#FFFFFF" d="M160,120.386c-6.75,3.824-11.46,10.91-11.821,19.216c-0.559,12.812,9.411,23.69,22.224,24.249
			c12.812,0.557,23.688-9.412,24.247-22.225c0.386-8.85-4.253-16.77-11.379-21.01C174.879,119.477,166.984,119.579,160,120.386z
			 M189.099,141.385c-0.425,9.75-8.703,17.34-18.456,16.915c-9.749-0.426-17.337-8.704-16.911-18.455
			c0.428-9.751,8.704-17.338,18.454-16.913C181.937,123.355,189.524,131.634,189.099,141.385z"/>
		<path fill="#FFFFFF" d="M144.082,139.424c0.299-6.877,3.132-13.053,7.548-17.678c-1.279,0.27-2.52,0.556-3.7,0.862
			c-8.626,2.234-5.829,14-5.829,14c0.337,1.515,0.927,4.205,2.241,7.931C144.103,142.872,144.007,141.164,144.082,139.424z"/>
		<path fill="#FFFFFF" d="M191.582,122.144c4.731,5.165,7.497,12.129,7.169,19.662c-0.589,13.47-10.874,24.26-23.811,25.934
			c8.432,0.356,12.897,0.253,19.074-4.186c4.856-3.488,7.469-23.96,7.469-23.96C201.695,136.943,203.647,125.283,191.582,122.144z"
			/>
	</g>
</g>
<path fill="#7B1E1E" d="M150.277,117.092c-12.752,2.455-20.874,2.312-20.874,2.312s-8.105-0.564-20.596-4.12
	c-12.489-3.553-37.042-6.632-64.845-1.924l0.396,11.659c0,0,3.919-0.131,4.477,3.207c0.556,3.336,5.072,24.105,5.955,26.853
	c0.884,2.751,4.829,11.251,20.258,11.822c15.43,0.572,25.992,0.029,34.041-9.656c8.048-9.684,11.709-19.964,13.777-23.685
	c2.069-3.723,3.583-3.959,6.088-3.85c2.503,0.108,3.993,0.475,5.732,4.363c1.735,3.889,4.488,14.445,11.664,24.795
	s17.648,11.808,33.071,12.581c15.422,0.771,20.091-7.354,21.209-10.017c1.119-2.66,7.424-22.957,8.269-26.232s4.74-2.805,4.74-2.805
	l1.407-11.58C187.758,113.707,163.028,114.637,150.277,117.092z M115.257,135.437c-0.815,2.573-2.684,8.614-8.077,17.211
	c-5.393,8.594-17.956,11.357-26.771,10.975c-8.815-0.384-13.313-0.78-19.214-5.854c-4.533-3.898-5.354-24.52-5.354-24.52
	c0.018-2.708-0.956-14.893,12.066-16.635c16.977-2.27,32.101,0.597,42.762,4.373C119.068,123.96,115.257,135.437,115.257,135.437z
	 M201.481,139.596c0,0-2.613,20.468-7.469,23.958c-6.319,4.542-10.833,4.547-19.648,4.161c-8.812-0.383-21.09-4.231-25.716-13.264
	c-4.623-9.029-5.961-15.212-6.548-17.847c0,0-2.798-11.764,5.829-13.998c10.946-2.832,26.265-4.373,42.978-0.635
	C203.729,124.84,201.7,136.896,201.481,139.596z"/>
</svg>
