<?xml version="1.0" encoding="UTF-8" standalone="no"?>
<!-- Created with Inkscape (http://www.inkscape.org/) -->
<svg
   xmlns:dc="http://purl.org/dc/elements/1.1/"
   xmlns:cc="http://creativecommons.org/ns#"
   xmlns:rdf="http://www.w3.org/1999/02/22-rdf-syntax-ns#"
   xmlns:svg="http://www.w3.org/2000/svg"
   xmlns="http://www.w3.org/2000/svg"
   xmlns:sodipodi="http://sodipodi.sourceforge.net/DTD/sodipodi-0.dtd"
   xmlns:inkscape="http://www.inkscape.org/namespaces/inkscape"
   width="150"
   height="150"
   id="svg22743"
   sodipodi:version="0.32"
   inkscape:version="0.46"
   version="1.0"
   sodipodi:docname="new-on-stars.svg"
   inkscape:output_extension="org.inkscape.output.svg.inkscape"
   inkscape:export-filename="/home/nathan/images/svg/new-on-stars.png"
   inkscape:export-xdpi="120"
   inkscape:export-ydpi="120">
  <defs
     id="defs22745">
    <inkscape:perspective
       sodipodi:type="inkscape:persp3d"
       inkscape:vp_x="0 : 526.18109 : 1"
       inkscape:vp_y="0 : 1000 : 0"
       inkscape:vp_z="744.09448 : 526.18109 : 1"
       inkscape:persp3d-origin="372.04724 : 350.78739 : 1"
       id="perspective22751" />
  </defs>
  <sodipodi:namedview
     id="base"
     pagecolor="#787878"
     bordercolor="#666666"
     borderopacity="1.0"
     gridtolerance="10000"
     guidetolerance="10"
     objecttolerance="10"
     inkscape:pageopacity="0"
     inkscape:pageshadow="2"
     inkscape:zoom="3.959798"
     inkscape:cx="31.907442"
     inkscape:cy="68.697433"
     inkscape:document-units="px"
     inkscape:current-layer="layer1"
     showgrid="false"
     inkscape:window-width="1142"
     inkscape:window-height="895"
     inkscape:window-x="118"
     inkscape:window-y="56" />
  <metadata
     id="metadata22748">
    <rdf:RDF>
      <cc:Work
         rdf:about="">
        <dc:format>image/svg+xml</dc:format>
        <dc:type
           rdf:resource="http://purl.org/dc/dcmitype/StillImage" />
        <dc:title>New On Stars</dc:title>
        <dc:date>2009-Feb-13</dc:date>
        <dc:creator>
          <cc:Agent>
            <dc:title>Nathan Eady</dc:title>
          </cc:Agent>
        </dc:creator>
        <dc:rights>
          <cc:Agent>
            <dc:title>Galion Public Library</dc:title>
          </cc:Agent>
        </dc:rights>
        <dc:publisher>
          <cc:Agent>
            <dc:title>Open Clip Art Library</dc:title>
          </cc:Agent>
        </dc:publisher>
        <dc:subject>
          <rdf:Bag>
            <rdf:li>new</rdf:li>
            <rdf:li>stars</rdf:li>
          </rdf:Bag>
        </dc:subject>
        <cc:license
           rdf:resource="http://creativecommons.org/licenses/publicdomain/" />
      </cc:Work>
      <cc:License
         rdf:about="http://creativecommons.org/licenses/publicdomain/">
        <cc:permits
           rdf:resource="http://creativecommons.org/ns#Reproduction" />
        <cc:permits
           rdf:resource="http://creativecommons.org/ns#Distribution" />
        <cc:permits
           rdf:resource="http://creativecommons.org/ns#DerivativeWorks" />
      </cc:License>
    </rdf:RDF>
  </metadata>
  <g
     inkscape:label="Layer 1"
     inkscape:groupmode="layer"
     id="layer1">
    <path
       sodipodi:type="star"
       style="fill:#ffd556;fill-opacity:1;stroke:none;stroke-width:1;stroke-linecap:round;stroke-linejoin:round;stroke-miterlimit:4;stroke-dasharray:none;stroke-dashoffset:0;stroke-opacity:1"
       id="path23657"
       sodipodi:sides="5"
       sodipodi:cx="1.4285713"
       sodipodi:cy="2.1428568"
       sodipodi:r1="45.928627"
       sodipodi:r2="21.127169"
       sodipodi:arg1="0.92885043"
       sodipodi:arg2="1.557169"
       inkscape:flatsided="false"
       inkscape:rounded="0"
       inkscape:randomized="0"
       d="M 28.928571,38.928571 L 1.7164693,23.268064 L -25.058755,39.664322 L -18.573729,8.944712 L -42.441496,-11.453317 L -11.221428,-14.778572 L 0.8027045,-43.781506 L 13.612742,-15.117017 L 44.911832,-12.643786 L 21.608802,8.3970976 L 28.928571,38.928571 z"
       transform="matrix(0.1196814,0,0,0.1261712,134.96008,85.609976)" />
    <path
       sodipodi:type="star"
       style="fill:#cf8b00;fill-opacity:1;stroke:none;stroke-width:1;stroke-linecap:round;stroke-linejoin:round;stroke-miterlimit:4;stroke-dasharray:none;stroke-dashoffset:0;stroke-opacity:1"
       id="path23646"
       sodipodi:sides="5"
       sodipodi:cx="1.4285713"
       sodipodi:cy="2.1428568"
       sodipodi:r1="45.928627"
       sodipodi:r2="21.127169"
       sodipodi:arg1="0.92885043"
       sodipodi:arg2="1.557169"
       inkscape:flatsided="false"
       inkscape:rounded="0"
       inkscape:randomized="0"
       d="M 28.928571,38.928571 L 1.7164693,23.268064 L -25.058755,39.664322 L -18.573729,8.944712 L -42.441496,-11.453317 L -11.221428,-14.778572 L 0.8027045,-43.781506 L 13.612742,-15.117017 L 44.911832,-12.643786 L 21.608802,8.3970976 L 28.928571,38.928571 z"
       transform="matrix(0.1196814,0,0,0.1261712,29.651674,141.16837)" />
    <path
       sodipodi:type="star"
       style="fill:#cf8b00;fill-opacity:1;stroke:none;stroke-width:1;stroke-linecap:round;stroke-linejoin:round;stroke-miterlimit:4;stroke-dasharray:none;stroke-dashoffset:0;stroke-opacity:1"
       id="path23642"
       sodipodi:sides="5"
       sodipodi:cx="1.4285713"
       sodipodi:cy="2.1428568"
       sodipodi:r1="45.928627"
       sodipodi:r2="21.127169"
       sodipodi:arg1="0.92885043"
       sodipodi:arg2="1.557169"
       inkscape:flatsided="false"
       inkscape:rounded="0"
       inkscape:randomized="0"
       d="M 28.928571,38.928571 L 1.7164693,23.268064 L -25.058755,39.664322 L -18.573729,8.944712 L -42.441496,-11.453317 L -11.221428,-14.778572 L 0.8027045,-43.781506 L 13.612742,-15.117017 L 44.911832,-12.643786 L 21.608802,8.3970976 L 28.928571,38.928571 z"
       transform="matrix(0.1196814,0,0,0.1261712,23.423603,93.405309)" />
    <path
       sodipodi:type="star"
       style="fill:#ffd60f;fill-opacity:1;stroke:none;stroke-width:1;stroke-linecap:round;stroke-linejoin:round;stroke-miterlimit:4;stroke-dasharray:none;stroke-dashoffset:0;stroke-opacity:1"
       id="path23621"
       sodipodi:sides="5"
       sodipodi:cx="1.4285713"
       sodipodi:cy="2.1428568"
       sodipodi:r1="45.928627"
       sodipodi:r2="21.127169"
       sodipodi:arg1="0.92885043"
       sodipodi:arg2="1.557169"
       inkscape:flatsided="false"
       inkscape:rounded="0"
       inkscape:randomized="0"
       d="M 28.928571,38.928571 L 1.7164693,23.268064 L -25.058755,39.664322 L -18.573729,8.944712 L -42.441496,-11.453317 L -11.221428,-14.778572 L 0.8027045,-43.781506 L 13.612742,-15.117017 L 44.911832,-12.643786 L 21.608802,8.3970976 L 28.928571,38.928571 z"
       transform="matrix(0.1196814,0,0,0.1261712,80.664378,9.3434546)" />
    <path
       sodipodi:type="star"
       style="fill:#ffee02;fill-opacity:1;stroke:none;stroke-width:1;stroke-linecap:round;stroke-linejoin:round;stroke-miterlimit:4;stroke-dasharray:none;stroke-dashoffset:0;stroke-opacity:1"
       id="path23619"
       sodipodi:sides="5"
       sodipodi:cx="1.4285713"
       sodipodi:cy="2.1428568"
       sodipodi:r1="45.928627"
       sodipodi:r2="21.127169"
       sodipodi:arg1="0.92885043"
       sodipodi:arg2="1.557169"
       inkscape:flatsided="false"
       inkscape:rounded="0"
       inkscape:randomized="0"
       d="M 28.928571,38.928571 L 1.7164693,23.268064 L -25.058755,39.664322 L -18.573729,8.944712 L -42.441496,-11.453317 L -11.221428,-14.778572 L 0.8027045,-43.781506 L 13.612742,-15.117017 L 44.911832,-12.643786 L 21.608802,8.3970976 L 28.928571,38.928571 z"
       transform="matrix(0.1196814,0,0,0.1261712,141.52607,36.617573)" />
    <path
       sodipodi:type="star"
       style="opacity:1;fill:#a36000;fill-opacity:1;stroke:none;stroke-width:1;stroke-linecap:round;stroke-linejoin:round;stroke-miterlimit:4;stroke-dasharray:none;stroke-dashoffset:0;stroke-opacity:1"
       id="path23588"
       sodipodi:sides="5"
       sodipodi:cx="1.4285713"
       sodipodi:cy="2.1428568"
       sodipodi:r1="45.928627"
       sodipodi:r2="21.127169"
       sodipodi:arg1="0.92885043"
       sodipodi:arg2="1.557169"
       inkscape:flatsided="false"
       inkscape:rounded="0"
       inkscape:randomized="0"
       d="M 28.928571,38.928571 L 1.7164693,23.268064 L -25.058755,39.664322 L -18.573729,8.944712 L -42.441496,-11.453317 L -11.221428,-14.778572 L 0.8027045,-43.781506 L 13.612742,-15.117017 L 44.911832,-12.643786 L 21.608802,8.3970976 L 28.928571,38.928571 z"
       transform="matrix(1.6432224,0,0,1.7323273,73.837981,80.590755)" />
    <path
       sodipodi:type="star"
       style="fill:#ffd556;fill-opacity:1;stroke:none;stroke-width:1;stroke-linecap:round;stroke-linejoin:round;stroke-miterlimit:4;stroke-dasharray:none;stroke-dashoffset:0;stroke-opacity:1"
       id="path23631"
       sodipodi:sides="5"
       sodipodi:cx="1.4285713"
       sodipodi:cy="2.1428568"
       sodipodi:r1="45.928627"
       sodipodi:r2="21.127169"
       sodipodi:arg1="0.92885043"
       sodipodi:arg2="1.557169"
       inkscape:flatsided="false"
       inkscape:rounded="0"
       inkscape:randomized="0"
       d="M 28.928571,38.928571 L 1.7164693,23.268064 L -25.058755,39.664322 L -18.573729,8.944712 L -42.441496,-11.453317 L -11.221428,-14.778572 L 0.8027045,-43.781506 L 13.612742,-15.117017 L 44.911832,-12.643786 L 21.608802,8.3970976 L 28.928571,38.928571 z"
       transform="matrix(0.1196814,0,0,0.1261712,57.877748,132.17108)" />
    <path
       sodipodi:type="star"
       style="opacity:1;fill:#ffff00;fill-opacity:1;stroke:none;stroke-width:1;stroke-linecap:round;stroke-linejoin:round;stroke-miterlimit:4;stroke-dasharray:none;stroke-dashoffset:0;stroke-opacity:1"
       id="path22759"
       sodipodi:sides="5"
       sodipodi:cx="1.4285713"
       sodipodi:cy="2.1428568"
       sodipodi:r1="45.928627"
       sodipodi:r2="21.127169"
       sodipodi:arg1="0.92885043"
       sodipodi:arg2="1.557169"
       inkscape:flatsided="false"
       inkscape:rounded="0"
       inkscape:randomized="0"
       d="M 28.928571,38.928571 L 1.7164693,23.268064 L -25.058755,39.664322 L -18.573729,8.944712 L -42.441496,-11.453317 L -11.221428,-14.778572 L 0.8027045,-43.781506 L 13.612742,-15.117017 L 44.911832,-12.643786 L 21.608802,8.3970976 L 28.928571,38.928571 z"
       transform="matrix(1.6432224,0,0,1.7323273,71.695123,77.062655)" />
    <path
       sodipodi:type="star"
       style="fill:#ffffa9;fill-opacity:1;stroke:none;stroke-width:1;stroke-linecap:round;stroke-linejoin:round;stroke-miterlimit:4;stroke-dasharray:none;stroke-dashoffset:0;stroke-opacity:1"
       id="path23625"
       sodipodi:sides="5"
       sodipodi:cx="1.4285713"
       sodipodi:cy="2.1428568"
       sodipodi:r1="45.928627"
       sodipodi:r2="21.127169"
       sodipodi:arg1="0.92885043"
       sodipodi:arg2="1.557169"
       inkscape:flatsided="false"
       inkscape:rounded="0"
       inkscape:randomized="0"
       d="M 28.928571,38.928571 L 1.7164693,23.268064 L -25.058755,39.664322 L -18.573729,8.944712 L -42.441496,-11.453317 L -11.221428,-14.778572 L 0.8027045,-43.781506 L 13.612742,-15.117017 L 44.911832,-12.643786 L 21.608802,8.3970976 L 28.928571,38.928571 z"
       transform="matrix(0.1196814,0,0,0.1261712,63.744321,20.96021)" />
    <path
       sodipodi:type="star"
       style="opacity:1;fill:#ff9b08;fill-opacity:1;stroke:none;stroke-width:1;stroke-linecap:round;stroke-linejoin:round;stroke-miterlimit:4;stroke-dasharray:none;stroke-dashoffset:0;stroke-opacity:1"
       id="path23573"
       sodipodi:sides="5"
       sodipodi:cx="1.4285713"
       sodipodi:cy="2.1428568"
       sodipodi:r1="45.928627"
       sodipodi:r2="21.127169"
       sodipodi:arg1="0.92885043"
       sodipodi:arg2="1.557169"
       inkscape:flatsided="false"
       inkscape:rounded="0"
       inkscape:randomized="0"
       d="M 28.928571,38.928571 L 1.7164693,23.268064 L -25.058755,39.664322 L -18.573729,8.944712 L -42.441496,-11.453317 L -11.221428,-14.778572 L 0.8027045,-43.781506 L 13.612742,-15.117017 L 44.911832,-12.643786 L 21.608802,8.3970976 L 28.928571,38.928571 z"
       transform="matrix(0.707734,0,0,0.7461112,40.197258,35.46451)" />
    <path
       sodipodi:type="star"
       style="fill:#ecaa00;fill-opacity:1;stroke:none;stroke-width:1;stroke-linecap:round;stroke-linejoin:round;stroke-miterlimit:4;stroke-dasharray:none;stroke-dashoffset:0;stroke-opacity:1"
       id="path23629"
       sodipodi:sides="5"
       sodipodi:cx="1.4285713"
       sodipodi:cy="2.1428568"
       sodipodi:r1="45.928627"
       sodipodi:r2="21.127169"
       sodipodi:arg1="0.92885043"
       sodipodi:arg2="1.557169"
       inkscape:flatsided="false"
       inkscape:rounded="0"
       inkscape:randomized="0"
       d="M 28.928571,38.928571 L 1.7164693,23.268064 L -25.058755,39.664322 L -18.573729,8.944712 L -42.441496,-11.453317 L -11.221428,-14.778572 L 0.8027045,-43.781506 L 13.612742,-15.117017 L 44.911832,-12.643786 L 21.608802,8.3970976 L 28.928571,38.928571 z"
       transform="matrix(0.1196814,0,0,0.1261712,20.307762,52.780015)" />
    <path
       sodipodi:type="star"
       style="opacity:1;fill:#ffca48;fill-opacity:1;stroke:none;stroke-width:1;stroke-linecap:round;stroke-linejoin:round;stroke-miterlimit:4;stroke-dasharray:none;stroke-dashoffset:0;stroke-opacity:1"
       id="path23531"
       sodipodi:sides="5"
       sodipodi:cx="1.4285713"
       sodipodi:cy="2.1428568"
       sodipodi:r1="45.928627"
       sodipodi:r2="21.127169"
       sodipodi:arg1="0.92885043"
       sodipodi:arg2="1.557169"
       inkscape:flatsided="false"
       inkscape:rounded="0"
       inkscape:randomized="0"
       d="M 28.928571,38.928571 L 1.7164693,23.268064 L -25.058755,39.664322 L -18.573729,8.944712 L -42.441496,-11.453317 L -11.221428,-14.778572 L 0.8027045,-43.781506 L 13.612742,-15.117017 L 44.911832,-12.643786 L 21.608802,8.3970976 L 28.928571,38.928571 z"
       transform="matrix(0.707734,0,0,0.7461112,39.134446,33.88463)" />
    <path
       sodipodi:type="star"
       style="opacity:1;fill:#ff9b08;fill-opacity:1;stroke:none;stroke-width:1;stroke-linecap:round;stroke-linejoin:round;stroke-miterlimit:4;stroke-dasharray:none;stroke-dashoffset:0;stroke-opacity:1"
       id="path23535"
       sodipodi:sides="5"
       sodipodi:cx="1.4285713"
       sodipodi:cy="2.1428568"
       sodipodi:r1="45.928627"
       sodipodi:r2="21.127169"
       sodipodi:arg1="0.92885043"
       sodipodi:arg2="1.557169"
       inkscape:flatsided="false"
       inkscape:rounded="0"
       inkscape:randomized="0"
       d="M 28.928571,38.928571 L 1.7164693,23.268064 L -25.058755,39.664322 L -18.573729,8.944712 L -42.441496,-11.453317 L -11.221428,-14.778572 L 0.8027045,-43.781506 L 13.612742,-15.117017 L 44.911832,-12.643786 L 21.608802,8.3970976 L 28.928571,38.928571 z"
       transform="matrix(0.707734,0,0,0.7461112,75.911546,114.39308)" />
    <g
       id="g23549">
      <path
         transform="matrix(0.3522087,0,0,0.3713074,20.636395,20.407227)"
         d="M 28.928571,38.928571 L 1.7164693,23.268064 L -25.058755,39.664322 L -18.573729,8.944712 L -42.441496,-11.453317 L -11.221428,-14.778572 L 0.8027045,-43.781506 L 13.612742,-15.117017 L 44.911832,-12.643786 L 21.608802,8.3970976 L 28.928571,38.928571 z"
         inkscape:randomized="0"
         inkscape:rounded="0"
         inkscape:flatsided="false"
         sodipodi:arg2="1.557169"
         sodipodi:arg1="0.92885043"
         sodipodi:r2="21.127169"
         sodipodi:r1="45.928627"
         sodipodi:cy="2.1428568"
         sodipodi:cx="1.4285713"
         sodipodi:sides="5"
         id="path23547"
         style="opacity:1;fill:#ffa31a;fill-opacity:1;stroke:none;stroke-width:1;stroke-linecap:round;stroke-linejoin:round;stroke-miterlimit:4;stroke-dasharray:none;stroke-dashoffset:0;stroke-opacity:1"
         sodipodi:type="star" />
      <path
         transform="matrix(0.3522087,0,0,0.3713074,19.922106,18.26437)"
         d="M 28.928571,38.928571 L 1.7164693,23.268064 L -25.058755,39.664322 L -18.573729,8.944712 L -42.441496,-11.453317 L -11.221428,-14.778572 L 0.8027045,-43.781506 L 13.612742,-15.117017 L 44.911832,-12.643786 L 21.608802,8.3970976 L 28.928571,38.928571 z"
         inkscape:randomized="0"
         inkscape:rounded="0"
         inkscape:flatsided="false"
         sodipodi:arg2="1.557169"
         sodipodi:arg1="0.92885043"
         sodipodi:r2="21.127169"
         sodipodi:r1="45.928627"
         sodipodi:cy="2.1428568"
         sodipodi:cx="1.4285713"
         sodipodi:sides="5"
         id="path23539"
         style="opacity:1;fill:#ffff5e;fill-opacity:1;stroke:none;stroke-width:1;stroke-linecap:round;stroke-linejoin:round;stroke-miterlimit:4;stroke-dasharray:none;stroke-dashoffset:0;stroke-opacity:1"
         sodipodi:type="star" />
    </g>
    <path
       sodipodi:type="star"
       style="opacity:1;fill:#ffff5e;fill-opacity:1;stroke:none;stroke-width:1;stroke-linecap:round;stroke-linejoin:round;stroke-miterlimit:4;stroke-dasharray:none;stroke-dashoffset:0;stroke-opacity:1"
       id="path23541"
       sodipodi:sides="5"
       sodipodi:cx="1.4285713"
       sodipodi:cy="2.1428568"
       sodipodi:r1="45.928627"
       sodipodi:r2="21.127169"
       sodipodi:arg1="0.92885043"
       sodipodi:arg2="1.557169"
       inkscape:flatsided="false"
       inkscape:rounded="0"
       inkscape:randomized="0"
       d="M 28.928571,38.928571 L 1.7164693,23.268064 L -25.058755,39.664322 L -18.573729,8.944712 L -42.441496,-11.453317 L -11.221428,-14.778572 L 0.8027045,-43.781506 L 13.612742,-15.117017 L 44.911832,-12.643786 L 21.608802,8.3970976 L 28.928571,38.928571 z"
       transform="matrix(0.3522087,0,0,0.3713074,75.993535,116.12151)" />
    <path
       sodipodi:type="star"
       style="opacity:1;fill:#ff9b08;fill-opacity:1;stroke:none;stroke-width:1;stroke-linecap:round;stroke-linejoin:round;stroke-miterlimit:4;stroke-dasharray:none;stroke-dashoffset:0;stroke-opacity:1"
       id="path23577"
       sodipodi:sides="5"
       sodipodi:cx="1.4285713"
       sodipodi:cy="2.1428568"
       sodipodi:r1="45.928627"
       sodipodi:r2="21.127169"
       sodipodi:arg1="0.92885043"
       sodipodi:arg2="1.557169"
       inkscape:flatsided="false"
       inkscape:rounded="0"
       inkscape:randomized="0"
       d="M 28.928571,38.928571 L 1.7164693,23.268064 L -25.058755,39.664322 L -18.573729,8.944712 L -42.441496,-11.453317 L -11.221428,-14.778572 L 0.8027045,-43.781506 L 13.612742,-15.117017 L 44.911832,-12.643786 L 21.608802,8.3970976 L 28.928571,38.928571 z"
       transform="matrix(0.707734,0,0,0.7461112,117.34011,54.035938)" />
    <path
       sodipodi:type="star"
       style="fill:#ffa31a;fill-opacity:1;stroke:none;stroke-width:1;stroke-linecap:round;stroke-linejoin:round;stroke-miterlimit:4;stroke-dasharray:none;stroke-dashoffset:0;stroke-opacity:1"
       id="path23555"
       sodipodi:sides="5"
       sodipodi:cx="1.4285713"
       sodipodi:cy="2.1428568"
       sodipodi:r1="45.928627"
       sodipodi:r2="21.127169"
       sodipodi:arg1="0.92885043"
       sodipodi:arg2="1.557169"
       inkscape:flatsided="false"
       inkscape:rounded="0"
       inkscape:randomized="0"
       d="M 28.928571,38.928571 L 1.7164693,23.268064 L -25.058755,39.664322 L -18.573729,8.944712 L -42.441496,-11.453317 L -11.221428,-14.778572 L 0.8027045,-43.781506 L 13.612742,-15.117017 L 44.911832,-12.643786 L 21.608802,8.3970976 L 28.928571,38.928571 z"
       transform="matrix(0.3522087,0,0,0.3713074,129.9221,24.335799)" />
    <path
       sodipodi:type="star"
       style="opacity:1;fill:#ffca48;fill-opacity:1;stroke:none;stroke-width:1;stroke-linecap:round;stroke-linejoin:round;stroke-miterlimit:4;stroke-dasharray:none;stroke-dashoffset:0;stroke-opacity:1"
       id="path23533"
       sodipodi:sides="5"
       sodipodi:cx="1.4285713"
       sodipodi:cy="2.1428568"
       sodipodi:r1="45.928627"
       sodipodi:r2="21.127169"
       sodipodi:arg1="0.92885043"
       sodipodi:arg2="1.557169"
       inkscape:flatsided="false"
       inkscape:rounded="0"
       inkscape:randomized="0"
       d="M 28.928571,38.928571 L 1.7164693,23.268064 L -25.058755,39.664322 L -18.573729,8.944712 L -42.441496,-11.453317 L -11.221428,-14.778572 L 0.8027045,-43.781506 L 13.612742,-15.117017 L 44.911832,-12.643786 L 21.608802,8.3970976 L 28.928571,38.928571 z"
       transform="matrix(0.707734,0,0,0.7461112,116.2773,52.813201)" />
    <path
       sodipodi:type="star"
       style="fill:#ffff5e;fill-opacity:1;stroke:none;stroke-width:1;stroke-linecap:round;stroke-linejoin:round;stroke-miterlimit:4;stroke-dasharray:none;stroke-dashoffset:0;stroke-opacity:1"
       id="path23557"
       sodipodi:sides="5"
       sodipodi:cx="1.4285713"
       sodipodi:cy="2.1428568"
       sodipodi:r1="45.928627"
       sodipodi:r2="21.127169"
       sodipodi:arg1="0.92885043"
       sodipodi:arg2="1.557169"
       inkscape:flatsided="false"
       inkscape:rounded="0"
       inkscape:randomized="0"
       d="M 28.928571,38.928571 L 1.7164693,23.268064 L -25.058755,39.664322 L -18.573729,8.944712 L -42.441496,-11.453317 L -11.221428,-14.778572 L 0.8027045,-43.781506 L 13.612742,-15.117017 L 44.911832,-12.643786 L 21.608802,8.3970976 L 28.928571,38.928571 z"
       transform="matrix(0.3522087,0,0,0.3713074,129.20782,22.192942)" />
    <g
       id="g23559"
       transform="translate(111.42857,93.117115)">
      <path
         transform="matrix(0.3522087,0,0,0.3713074,20.636395,20.407227)"
         d="M 28.928571,38.928571 L 1.7164693,23.268064 L -25.058755,39.664322 L -18.573729,8.944712 L -42.441496,-11.453317 L -11.221428,-14.778572 L 0.8027045,-43.781506 L 13.612742,-15.117017 L 44.911832,-12.643786 L 21.608802,8.3970976 L 28.928571,38.928571 z"
         inkscape:randomized="0"
         inkscape:rounded="0"
         inkscape:flatsided="false"
         sodipodi:arg2="1.557169"
         sodipodi:arg1="0.92885043"
         sodipodi:r2="21.127169"
         sodipodi:r1="45.928627"
         sodipodi:cy="2.1428568"
         sodipodi:cx="1.4285713"
         sodipodi:sides="5"
         id="path23561"
         style="opacity:1;fill:#ffa31a;fill-opacity:1;stroke:none;stroke-width:1;stroke-linecap:round;stroke-linejoin:round;stroke-miterlimit:4;stroke-dasharray:none;stroke-dashoffset:0;stroke-opacity:1"
         sodipodi:type="star" />
      <path
         transform="matrix(0.3522087,0,0,0.3713074,19.922106,18.26437)"
         d="M 28.928571,38.928571 L 1.7164693,23.268064 L -25.058755,39.664322 L -18.573729,8.944712 L -42.441496,-11.453317 L -11.221428,-14.778572 L 0.8027045,-43.781506 L 13.612742,-15.117017 L 44.911832,-12.643786 L 21.608802,8.3970976 L 28.928571,38.928571 z"
         inkscape:randomized="0"
         inkscape:rounded="0"
         inkscape:flatsided="false"
         sodipodi:arg2="1.557169"
         sodipodi:arg1="0.92885043"
         sodipodi:r2="21.127169"
         sodipodi:r1="45.928627"
         sodipodi:cy="2.1428568"
         sodipodi:cx="1.4285713"
         sodipodi:sides="5"
         id="path23563"
         style="opacity:1;fill:#ffff5e;fill-opacity:1;stroke:none;stroke-width:1;stroke-linecap:round;stroke-linejoin:round;stroke-miterlimit:4;stroke-dasharray:none;stroke-dashoffset:0;stroke-opacity:1"
         sodipodi:type="star" />
    </g>
    <g
       id="g23565"
       transform="translate(-2.6785733,88.145576)">
      <path
         transform="matrix(0.3522087,0,0,0.3713074,20.636395,20.407227)"
         d="M 28.928571,38.928571 L 1.7164693,23.268064 L -25.058755,39.664322 L -18.573729,8.944712 L -42.441496,-11.453317 L -11.221428,-14.778572 L 0.8027045,-43.781506 L 13.612742,-15.117017 L 44.911832,-12.643786 L 21.608802,8.3970976 L 28.928571,38.928571 z"
         inkscape:randomized="0"
         inkscape:rounded="0"
         inkscape:flatsided="false"
         sodipodi:arg2="1.557169"
         sodipodi:arg1="0.92885043"
         sodipodi:r2="21.127169"
         sodipodi:r1="45.928627"
         sodipodi:cy="2.1428568"
         sodipodi:cx="1.4285713"
         sodipodi:sides="5"
         id="path23567"
         style="opacity:1;fill:#ffa31a;fill-opacity:1;stroke:none;stroke-width:1;stroke-linecap:round;stroke-linejoin:round;stroke-miterlimit:4;stroke-dasharray:none;stroke-dashoffset:0;stroke-opacity:1"
         sodipodi:type="star" />
      <path
         transform="matrix(0.3522087,0,0,0.3713074,19.922106,18.26437)"
         d="M 28.928571,38.928571 L 1.7164693,23.268064 L -25.058755,39.664322 L -18.573729,8.944712 L -42.441496,-11.453317 L -11.221428,-14.778572 L 0.8027045,-43.781506 L 13.612742,-15.117017 L 44.911832,-12.643786 L 21.608802,8.3970976 L 28.928571,38.928571 z"
         inkscape:randomized="0"
         inkscape:rounded="0"
         inkscape:flatsided="false"
         sodipodi:arg2="1.557169"
         sodipodi:arg1="0.92885043"
         sodipodi:r2="21.127169"
         sodipodi:r1="45.928627"
         sodipodi:cy="2.1428568"
         sodipodi:cx="1.4285713"
         sodipodi:sides="5"
         id="path23569"
         style="opacity:1;fill:#ffff5e;fill-opacity:1;stroke:none;stroke-width:1;stroke-linecap:round;stroke-linejoin:round;stroke-miterlimit:4;stroke-dasharray:none;stroke-dashoffset:0;stroke-opacity:1"
         sodipodi:type="star" />
    </g>
    <path
       style="fill:#ffffff;fill-opacity:1;fill-rule:evenodd;stroke:none;stroke-width:1px;stroke-linecap:butt;stroke-linejoin:miter;stroke-opacity:1"
       d="M 100,50.873415 L 94.65625,80.754746 L 88.75,51.039423 L 81.25,51.20543 L 91.0625,97.6875 L 97.84375,97.051138 L 102.84375,72.067026 L 108.75,97.6875 L 114.28125,97.355485 L 124.28125,51.20543 L 117.3125,51.039423 L 111.59375,80.920753 L 106.0625,50.873415 L 100,50.873415 z M 53.75,51.20543 L 47.84375,51.675784 L 47.6875,79.343683 L 35.1875,51.34377 L 28.40625,51.841792 L 28.9375,97.217146 L 34.8125,97.051138 L 35.71875,70.489956 L 48.21875,96.580784 L 54.28125,96.580784 L 53.75,51.20543 z M 61.59375,51.509777 L 62.3125,97.6875 L 77.5,97.355485 L 77.5,88.031403 L 68.40625,87.561049 L 68.5625,78.873329 L 77.15625,78.236967 L 76.96875,69.38324 L 68.40625,69.38324 L 68.5625,60.059158 L 77.3125,59.89315 L 77.15625,51.841792 L 61.59375,51.509777 z"
       id="path23581" />
    <path
       style="font-size:51.01732254px;font-style:normal;font-variant:normal;font-weight:normal;font-stretch:normal;text-align:start;line-height:125%;writing-mode:lr-tb;text-anchor:start;fill:#000000;fill-opacity:1;stroke:none;stroke-width:1px;stroke-linecap:butt;stroke-linejoin:miter;stroke-opacity:1;font-family:Budmo Jiggler;-inkscape-font-specification:Budmo Jiggler"
       d="M 55.700695,98.952333 L 46.678045,98.952333 L 36.733934,74.758449 L 36.733934,98.952333 L 27.13537,98.952333 L 27.13537,50.084289 L 36.580357,50.084289 L 46.217314,74.578346 L 46.217314,50.084289 L 55.700695,50.084289 L 55.700695,98.952333 M 53.013098,56.267838 C 53.013069,55.427398 52.821098,54.726996 52.437184,54.166631 C 52.07881,53.566331 51.630878,53.266159 51.093384,53.266114 C 50.55584,53.266159 50.095109,53.566331 49.711192,54.166631 C 49.352821,54.726996 49.173648,55.427398 49.173672,56.267838 C 49.173648,57.10836 49.352821,57.828773 49.711192,58.429078 C 50.095109,58.989437 50.55584,59.269598 51.093384,59.269561 C 51.630878,59.269598 52.07881,58.989437 52.437184,58.429078 C 52.821098,57.828773 53.013069,57.10836 53.013098,56.267838 M 53.013098,63.471972 C 53.013069,62.631524 52.821098,61.931123 52.437184,61.370766 C 52.07881,60.770458 51.630878,60.470287 51.093384,60.470249 C 50.55584,60.470287 50.095109,60.770458 49.711192,61.370766 C 49.352821,61.931123 49.173648,62.631524 49.173672,63.471972 C 49.173648,64.312487 49.352821,65.0329 49.711192,65.633212 C 50.095109,66.193565 50.55584,66.473726 51.093384,66.473694 C 51.630878,66.473726 52.07881,66.193565 52.437184,65.633212 C 52.821098,65.0329 53.013069,64.312487 53.013098,63.471972 M 53.013098,70.676106 C 53.013069,69.835652 52.821098,69.13525 52.437184,68.574901 C 52.07881,67.974585 51.630878,67.674413 51.093384,67.674384 C 50.55584,67.674413 50.095109,67.974585 49.711192,68.574901 C 49.352821,69.13525 49.173648,69.835652 49.173672,70.676106 C 49.173648,71.516614 49.352821,72.237027 49.711192,72.837347 C 50.095109,73.397692 50.55584,73.677852 51.093384,73.677829 C 51.630878,73.677852 52.07881,73.397692 52.437184,72.837347 C 52.821098,72.237027 53.013069,71.516614 53.013098,70.676106 M 53.013098,77.880241 C 53.013069,77.039778 52.821098,76.339377 52.437184,75.779034 C 52.07881,75.178712 51.630878,74.878541 51.093384,74.878518 C 50.55584,74.878541 50.095109,75.178712 49.711192,75.779034 C 49.352821,76.339377 49.173648,77.039778 49.173672,77.880241 C 49.173648,78.720741 49.352821,79.441154 49.711192,80.04148 C 50.095109,80.601819 50.55584,80.88198 51.093384,80.881963 C 51.630878,80.88198 52.07881,80.601819 52.437184,80.04148 C 52.821098,79.441154 53.013069,78.720741 53.013098,77.880241 M 35.850865,57.64863 C 35.313336,57.64867 34.852605,57.948842 34.468673,58.549147 C 34.110317,59.109507 33.931144,59.809908 33.931153,60.650352 C 33.931144,61.450848 34.123115,62.151249 34.507067,62.751558 C 34.890999,63.351938 35.338932,63.652109 35.850865,63.652075 C 36.388374,63.652109 36.836306,63.371948 37.194665,62.811593 C 37.578594,62.211283 37.770566,61.490871 37.770579,60.650352 C 37.770566,59.809908 37.578594,59.109507 37.194665,58.549147 C 36.836306,57.948842 36.388374,57.64867 35.850865,57.64863 M 53.013098,85.084374 C 53.013069,84.243906 52.821098,83.543505 52.437184,82.983169 C 52.07881,82.38284 51.630878,82.082667 51.093384,82.082652 C 50.55584,82.082667 50.095109,82.38284 49.711192,82.983169 C 49.352821,83.543505 49.173648,84.243906 49.173672,85.084374 C 49.173648,85.924869 49.352821,86.645281 49.711192,87.245615 C 50.095109,87.805946 50.55584,88.086106 51.093384,88.086097 C 51.630878,88.086106 52.07881,87.805946 52.437184,87.245615 C 52.821098,86.645281 53.013069,85.924869 53.013098,85.084374 M 33.81597,56.267838 C 33.815962,55.427398 33.62399,54.726996 33.240056,54.166631 C 32.881702,53.566331 32.43377,53.266159 31.896257,53.266114 C 31.358731,53.266159 30.898001,53.566331 30.514065,54.166631 C 30.155713,54.726996 29.976539,55.427398 29.976545,56.267838 C 29.976539,57.10836 30.155713,57.828773 30.514065,58.429078 C 30.898001,58.989437 31.358731,59.269598 31.896257,59.269561 C 32.43377,59.269598 32.881702,58.989437 33.240056,58.429078 C 33.62399,57.828773 33.815962,57.10836 33.81597,56.267838 M 38.308098,64.372489 C 37.770566,64.372521 37.309835,64.672694 36.925904,65.273005 C 36.567547,65.833358 36.388374,66.53376 36.388385,67.374211 C 36.388374,68.214723 36.567547,68.935136 36.925904,69.535452 C 37.309835,70.095801 37.770566,70.375961 38.308098,70.375933 C 38.845604,70.375961 39.293536,70.095801 39.651897,69.535452 C 40.035825,68.935136 40.227795,68.214723 40.227811,67.374211 C 40.227795,66.53376 40.035825,65.833358 39.651897,65.273005 C 39.293536,64.672694 38.845604,64.372521 38.308098,64.372489 M 41.149273,71.036313 C 40.611738,71.036339 40.151007,71.336512 39.767079,71.93683 C 39.408718,72.497177 39.229546,73.197577 39.22956,74.038035 C 39.229546,74.878541 39.408718,75.598953 39.767079,76.199276 C 40.151007,76.759618 40.611738,77.039778 41.149273,77.039758 C 41.686775,77.039778 42.134708,76.759618 42.493072,76.199276 C 42.876997,75.598953 43.068967,74.878541 43.068985,74.038035 C 43.068967,73.237601 42.876997,72.537199 42.493072,71.93683 C 42.109112,71.336512 41.66118,71.036339 41.149273,71.036313 M 44.335996,78.360516 C 43.824054,78.360535 43.376121,78.660707 42.992197,79.261033 C 42.608237,79.861395 42.416265,80.561796 42.416284,81.362238 C 42.416265,82.202736 42.595439,82.923149 42.953803,83.523479 C 43.337727,84.083814 43.798457,84.363975 44.335996,84.363961 C 44.873496,84.363975 45.321428,84.083814 45.679795,83.523479 C 46.063716,82.923149 46.255688,82.202736 46.255709,81.362238 C 46.255688,80.521773 46.063716,79.821372 45.679795,79.261033 C 45.321428,78.660707 44.873496,78.360535 44.335996,78.360516 M 53.013098,92.288509 C 53.013069,91.448033 52.821098,90.747631 52.437184,90.187303 C 52.07881,89.586966 51.630878,89.286795 51.093384,89.286786 C 50.55584,89.286795 50.095109,89.586966 49.711192,90.187303 C 49.352821,90.747631 49.173648,91.448033 49.173672,92.288509 C 49.173648,93.128995 49.352821,93.849408 49.711192,94.44975 C 50.095109,95.010073 50.55584,95.290234 51.093384,95.290231 C 51.630878,95.290234 52.07881,95.010073 52.437184,94.44975 C 52.821098,93.849408 53.013069,93.128995 53.013098,92.288509 M 33.81597,63.471972 C 33.815962,62.631524 33.62399,61.931123 33.240056,61.370766 C 32.881702,60.770458 32.43377,60.470287 31.896257,60.470249 C 31.358731,60.470287 30.898001,60.770458 30.514065,61.370766 C 30.155713,61.931123 29.976539,62.631524 29.976545,63.471972 C 29.976539,64.312487 30.155713,65.0329 30.514065,65.633212 C 30.898001,66.193565 31.358731,66.473726 31.896257,66.473694 C 32.43377,66.473726 32.881702,66.193565 33.240056,65.633212 C 33.62399,65.0329 33.815962,64.312487 33.81597,63.471972 M 47.177171,84.48403 C 46.639629,84.484043 46.178899,84.784215 45.794978,85.384547 C 45.436611,85.94488 45.257437,86.645281 45.257458,87.485753 C 45.257437,88.326245 45.436611,89.046657 45.794978,89.646993 C 46.178899,90.207322 46.639629,90.487482 47.177171,90.487475 C 47.689071,90.487482 48.137004,90.187311 48.52097,89.586959 C 48.904888,88.986622 49.09686,88.286221 49.096884,87.485753 C 49.09686,86.645281 48.904888,85.94488 48.52097,85.384547 C 48.1626,84.784215 47.714668,84.484043 47.177171,84.48403 M 33.81597,70.676106 C 33.815962,69.835652 33.62399,69.13525 33.240056,68.574901 C 32.881702,67.974585 32.43377,67.674413 31.896257,67.674384 C 31.358731,67.674413 30.898001,67.974585 30.514065,68.574901 C 30.155713,69.13525 29.976539,69.835652 29.976545,70.676106 C 29.976539,71.516614 30.155713,72.237027 30.514065,72.837347 C 30.898001,73.397692 31.358731,73.677852 31.896257,73.677829 C 32.43377,73.677852 32.881702,73.397692 33.240056,72.837347 C 33.62399,72.237027 33.815962,71.516614 33.81597,70.676106 M 33.81597,77.880241 C 33.815962,77.039778 33.62399,76.339377 33.240056,75.779034 C 32.881702,75.178712 32.43377,74.878541 31.896257,74.878518 C 31.358731,74.878541 30.898001,75.178712 30.514065,75.779034 C 30.155713,76.339377 29.976539,77.039778 29.976545,77.880241 C 29.976539,78.720741 30.155713,79.441154 30.514065,80.04148 C 30.898001,80.601819 31.358731,80.88198 31.896257,80.881963 C 32.43377,80.88198 32.881702,80.601819 33.240056,80.04148 C 33.62399,79.441154 33.815962,78.720741 33.81597,77.880241 M 33.81597,85.084374 C 33.815962,84.243906 33.62399,83.543505 33.240056,82.983169 C 32.881702,82.38284 32.43377,82.082667 31.896257,82.082652 C 31.358731,82.082667 30.898001,82.38284 30.514065,82.983169 C 30.155713,83.543505 29.976539,84.243906 29.976545,85.084374 C 29.976539,85.924869 30.155713,86.645281 30.514065,87.245615 C 30.898001,87.805946 31.358731,88.086106 31.896257,88.086097 C 32.43377,88.086106 32.881702,87.805946 33.240056,87.245615 C 33.62399,86.645281 33.815962,85.924869 33.81597,85.084374 M 33.81597,92.288509 C 33.815962,91.448033 33.62399,90.747631 33.240056,90.187303 C 32.881702,89.586966 32.43377,89.286795 31.896257,89.286786 C 31.358731,89.286795 30.898001,89.586966 30.514065,90.187303 C 30.155713,90.747631 29.976539,91.448033 29.976545,92.288509 C 29.976539,93.128995 30.155713,93.849408 30.514065,94.44975 C 30.898001,95.010073 31.358731,95.290234 31.896257,95.290231 C 32.43377,95.290234 32.881702,95.010073 33.240056,94.44975 C 33.62399,93.849408 33.815962,93.128995 33.81597,92.288509 M 79.091792,98.952333 L 60.355398,98.952333 L 60.355398,50.084289 L 79.091792,50.084289 L 79.091792,62.451386 L 70.030751,62.451386 L 70.030751,68.094625 L 79.091792,68.094625 L 79.091792,80.461722 L 70.030751,80.461722 L 70.030751,86.164995 L 79.091792,86.164995 L 79.091792,98.952333 M 76.250618,56.267838 C 76.250603,55.427398 76.05863,54.726996 75.674705,54.166631 C 75.316344,53.566331 74.86841,53.266159 74.330907,53.266114 C 73.793372,53.266159 73.332641,53.566331 72.948714,54.166631 C 72.590353,54.726996 72.41118,55.427398 72.411195,56.267838 C 72.41118,57.10836 72.590353,57.828773 72.948714,58.429078 C 73.332641,58.989437 73.793372,59.269598 74.330907,59.269561 C 74.86841,59.269598 75.316344,58.989437 75.674705,58.429078 C 76.05863,57.828773 76.250603,57.10836 76.250618,56.267838 M 71.643309,56.267838 C 71.643296,55.427398 71.451325,54.726996 71.067395,54.166631 C 70.709037,53.566331 70.261104,53.266159 69.723597,53.266114 C 69.186066,53.266159 68.725336,53.566331 68.341403,54.166631 C 67.983048,54.726996 67.803874,55.427398 67.803884,56.267838 C 67.803874,57.10836 67.983048,57.828773 68.341403,58.429078 C 68.725336,58.989437 69.186066,59.269598 69.723597,59.269561 C 70.261104,59.269598 70.709037,58.989437 71.067395,58.429078 C 71.451325,57.828773 71.643296,57.10836 71.643309,56.267838 M 67.035999,56.267838 C 67.03599,55.427398 66.844019,54.726996 66.460085,54.166631 C 66.10173,53.566331 65.653798,53.266159 65.116286,53.266114 C 64.57876,53.266159 64.11803,53.566331 63.734093,54.166631 C 63.375741,54.726996 63.196568,55.427398 63.196573,56.267838 C 63.196568,57.10836 63.375741,57.828773 63.734093,58.429078 C 64.11803,58.989437 64.57876,59.269598 65.116286,59.269561 C 65.653798,59.269598 66.10173,58.989437 66.460085,58.429078 C 66.844019,57.828773 67.03599,57.10836 67.035999,56.267838 M 76.250618,74.278173 C 76.250603,73.437715 76.05863,72.737314 75.674705,72.176967 C 75.316344,71.576649 74.86841,71.276476 74.330907,71.27645 C 73.793372,71.276476 73.332641,71.576649 72.948714,72.176967 C 72.590353,72.737314 72.41118,73.437715 72.411195,74.278173 C 72.41118,75.118678 72.590353,75.839091 72.948714,76.439414 C 73.332641,76.999756 73.793372,77.279917 74.330907,77.279895 C 74.86841,77.279917 75.316344,76.999756 75.674705,76.439414 C 76.05863,75.839091 76.250603,75.118678 76.250618,74.278173 M 67.035999,63.471972 C 67.03599,62.631524 66.844019,61.931123 66.460085,61.370766 C 66.10173,60.770458 65.653798,60.470287 65.116286,60.470249 C 64.57876,60.470287 64.11803,60.770458 63.734093,61.370766 C 63.375741,61.931123 63.196568,62.631524 63.196573,63.471972 C 63.196568,64.312487 63.375741,65.0329 63.734093,65.633212 C 64.11803,66.193565 64.57876,66.473726 65.116286,66.473694 C 65.653798,66.473726 66.10173,66.193565 66.460085,65.633212 C 66.844019,65.0329 67.03599,64.312487 67.035999,63.471972 M 71.643309,74.278173 C 71.643296,73.437715 71.451325,72.737314 71.067395,72.176967 C 70.709037,71.576649 70.261104,71.276476 69.723597,71.27645 C 69.186066,71.276476 68.725336,71.576649 68.341403,72.176967 C 67.983048,72.737314 67.803874,73.437715 67.803884,74.278173 C 67.803874,75.118678 67.983048,75.839091 68.341403,76.439414 C 68.725336,76.999756 69.186066,77.279917 69.723597,77.279895 C 70.261104,77.279917 70.709037,76.999756 71.067395,76.439414 C 71.451325,75.839091 71.643296,75.118678 71.643309,74.278173 M 67.035999,70.676106 C 67.03599,69.835652 66.844019,69.13525 66.460085,68.574901 C 66.10173,67.974585 65.653798,67.674413 65.116286,67.674384 C 64.57876,67.674413 64.11803,67.974585 63.734093,68.574901 C 63.375741,69.13525 63.196568,69.835652 63.196573,70.676106 C 63.196568,71.516614 63.375741,72.237027 63.734093,72.837347 C 64.11803,73.397692 64.57876,73.677852 65.116286,73.677829 C 65.653798,73.677852 66.10173,73.397692 66.460085,72.837347 C 66.844019,72.237027 67.03599,71.516614 67.035999,70.676106 M 67.035999,77.880241 C 67.03599,77.039778 66.844019,76.339377 66.460085,75.779034 C 66.10173,75.178712 65.653798,74.878541 65.116286,74.878518 C 64.57876,74.878541 64.11803,75.178712 63.734093,75.779034 C 63.375741,76.339377 63.196568,77.039778 63.196573,77.880241 C 63.196568,78.720741 63.375741,79.441154 63.734093,80.04148 C 64.11803,80.601819 64.57876,80.88198 65.116286,80.881963 C 65.653798,80.88198 66.10173,80.601819 66.460085,80.04148 C 66.844019,79.441154 67.03599,78.720741 67.035999,77.880241 M 76.250618,92.288509 C 76.250603,91.448033 76.05863,90.747631 75.674705,90.187303 C 75.316344,89.586966 74.86841,89.286795 74.330907,89.286786 C 73.793372,89.286795 73.332641,89.586966 72.948714,90.187303 C 72.590353,90.747631 72.41118,91.448033 72.411195,92.288509 C 72.41118,93.128995 72.590353,93.849408 72.948714,94.44975 C 73.332641,95.010073 73.793372,95.290234 74.330907,95.290231 C 74.86841,95.290234 75.316344,95.010073 75.674705,94.44975 C 76.05863,93.849408 76.250603,93.128995 76.250618,92.288509 M 67.035999,85.084374 C 67.03599,84.243906 66.844019,83.543505 66.460085,82.983169 C 66.10173,82.38284 65.653798,82.082667 65.116286,82.082652 C 64.57876,82.082667 64.11803,82.38284 63.734093,82.983169 C 63.375741,83.543505 63.196568,84.243906 63.196573,85.084374 C 63.196568,85.924869 63.375741,86.645281 63.734093,87.245615 C 64.11803,87.805946 64.57876,88.086106 65.116286,88.086097 C 65.653798,88.086106 66.10173,87.805946 66.460085,87.245615 C 66.844019,86.645281 67.03599,85.924869 67.035999,85.084374 M 71.643309,92.288509 C 71.643296,91.448033 71.451325,90.747631 71.067395,90.187303 C 70.709037,89.586966 70.261104,89.286795 69.723597,89.286786 C 69.186066,89.286795 68.725336,89.586966 68.341403,90.187303 C 67.983048,90.747631 67.803874,91.448033 67.803884,92.288509 C 67.803874,93.128995 67.983048,93.849408 68.341403,94.44975 C 68.725336,95.010073 69.186066,95.290234 69.723597,95.290231 C 70.261104,95.290234 70.709037,95.010073 71.067395,94.44975 C 71.451325,93.849408 71.643296,93.128995 71.643309,92.288509 M 67.035999,92.288509 C 67.03599,91.448033 66.844019,90.747631 66.460085,90.187303 C 66.10173,89.586966 65.653798,89.286795 65.116286,89.286786 C 64.57876,89.286795 64.11803,89.586966 63.734093,90.187303 C 63.375741,90.747631 63.196568,91.448033 63.196573,92.288509 C 63.196568,93.128995 63.375741,93.849408 63.734093,94.44975 C 64.11803,95.010073 64.57876,95.290234 65.116286,95.290231 C 65.653798,95.290234 66.10173,95.010073 66.460085,94.44975 C 66.844019,93.849408 67.03599,93.128995 67.035999,92.288509 M 125.60704,50.084289 L 115.73971,98.952333 L 106.94743,98.952333 L 102.99282,75.238724 L 98.807847,98.952333 L 90.015561,98.952333 L 80.148239,50.084289 L 90.476293,50.084289 L 94.622872,76.319344 L 98.807847,50.084289 L 107.40816,50.084289 L 111.55474,76.319344 L 115.73971,50.084289 L 125.60704,50.084289 M 121.806,55.547424 C 121.80596,54.706984 121.61399,54.006583 121.23009,53.446218 C 120.8717,52.845918 120.42377,52.545747 119.88629,52.545702 C 119.34873,52.545747 118.888,52.845918 118.50409,53.446218 C 118.14571,54.006583 117.96654,54.706984 117.96658,55.547424 C 117.96654,56.387947 118.14571,57.10836 118.50409,57.708664 C 118.888,58.269025 119.34873,58.549186 119.88629,58.549147 C 120.39818,58.549186 120.84611,58.249013 121.23009,57.64863 C 121.61399,57.048326 121.80596,56.347925 121.806,55.547424 M 120.46221,61.791007 C 120.46217,60.950562 120.2702,60.25016 119.88629,59.689801 C 119.52791,59.089495 119.07997,58.789323 118.54249,58.789284 C 118.00494,58.789323 117.5442,59.089495 117.1603,59.689801 C 116.80192,60.25016 116.62275,60.950562 116.62278,61.791007 C 116.62275,62.631524 116.80192,63.351938 117.1603,63.952248 C 117.5442,64.512601 118.00494,64.792762 118.54249,64.792729 C 119.07997,64.792762 119.52791,64.512601 119.88629,63.952248 C 120.2702,63.351938 120.46217,62.631524 120.46221,61.791007 M 119.11841,68.034591 C 119.11837,67.194138 118.92639,66.493736 118.54249,65.933384 C 118.18411,65.333073 117.73618,65.0329 117.1987,65.032868 C 116.66114,65.0329 116.20041,65.333073 115.8165,65.933384 C 115.45812,66.493736 115.27894,67.194138 115.27898,68.034591 C 115.27894,68.835078 115.47092,69.53548 115.8549,70.135796 C 116.23881,70.736167 116.68674,71.036339 117.1987,71.036313 C 117.73618,71.036339 118.18411,70.756179 118.54249,70.19583 C 118.92639,69.595514 119.11837,68.875102 119.11841,68.034591 M 117.88979,74.278173 C 117.88975,73.437715 117.69778,72.737314 117.31388,72.176967 C 116.9555,71.576649 116.50756,71.276476 115.97008,71.27645 C 115.43252,71.276476 114.9718,71.576649 114.58789,72.176967 C 114.2295,72.737314 114.05033,73.437715 114.05036,74.278173 C 114.05033,75.078655 114.2423,75.779057 114.62627,76.37938 C 115.01018,76.979744 115.45812,77.279917 115.97008,77.279895 C 116.50756,77.279917 116.9555,76.999756 117.31388,76.439414 C 117.69778,75.839091 117.88975,75.118678 117.88979,74.278173 M 103.22318,52.545702 C 102.68564,52.545747 102.22491,52.845918 101.84099,53.446218 C 101.48263,54.006583 101.30345,54.706984 101.30347,55.547424 C 101.30345,56.387947 101.48263,57.10836 101.84099,57.708664 C 102.22491,58.269025 102.68564,58.549186 103.22318,58.549147 C 103.76068,58.549186 104.20861,58.269025 104.56699,57.708664 C 104.9509,57.10836 105.14287,56.387947 105.1429,55.547424 C 105.14287,54.706984 104.9509,54.006583 104.56699,53.446218 C 104.20861,52.845918 103.76068,52.545747 103.22318,52.545702 M 104.56699,58.789284 C 103.95265,58.789323 103.45352,59.14953 103.06961,59.869905 C 102.68564,59.14953 102.19932,58.789323 101.61062,58.789284 C 101.07308,58.789323 100.61236,59.089495 100.22843,59.689801 C 99.870066,60.25016 99.690894,60.950562 99.690916,61.791007 C 99.690894,62.631524 99.870066,63.351938 100.22843,63.952248 C 100.61236,64.512601 101.07308,64.792762 101.61062,64.792729 C 102.19932,64.792762 102.68564,64.432556 103.06961,63.71211 C 103.45352,64.432556 103.95265,64.792762 104.56699,64.792729 C 105.07889,64.792762 105.52682,64.492591 105.91078,63.892212 C 106.2947,63.291902 106.48667,62.591502 106.48669,61.791007 C 106.48667,60.950562 106.2947,60.25016 105.91078,59.689801 C 105.55241,59.089495 105.10448,58.789323 104.56699,58.789284 M 116.66117,80.521757 C 116.66114,79.681291 116.46917,78.980891 116.08526,78.420551 C 115.72688,77.820226 115.27894,77.520054 114.74146,77.520034 C 114.20391,77.520054 113.74318,77.820226 113.35927,78.420551 C 113.00089,78.980891 112.82172,79.681291 112.82175,80.521757 C 112.82172,81.362255 113.00089,82.082667 113.35927,82.682996 C 113.74318,83.243332 114.20391,83.523493 114.74146,83.523479 C 115.25335,83.523493 115.70128,83.22332 116.08526,82.622962 C 116.46917,82.022633 116.66114,81.322231 116.66117,80.521757 M 105.91078,65.032868 C 105.37324,65.0329 104.91251,65.333073 104.52859,65.933384 C 104.17022,66.493736 103.99105,67.194138 103.99107,68.034591 C 103.99105,68.875102 104.17022,69.595514 104.52859,70.19583 C 104.91251,70.756179 105.37324,71.036339 105.91078,71.036313 C 106.42268,71.036339 106.87061,70.736167 107.25458,70.135796 C 107.6385,69.53548 107.83047,68.835078 107.8305,68.034591 C 107.83047,67.194138 107.6385,66.493736 107.25458,65.933384 C 106.89621,65.333073 106.44828,65.0329 105.91078,65.032868 M 107.101,71.27645 C 106.56346,71.276476 106.10273,71.576649 105.71881,72.176967 C 105.36044,72.737314 105.18127,73.437715 105.18129,74.278173 C 105.18127,75.078655 105.37324,75.779057 105.7572,76.37938 C 106.14112,76.979744 106.58905,77.279917 107.101,77.279895 C 107.6385,77.279917 108.08643,76.999756 108.44481,76.439414 C 108.82872,75.839091 109.02069,75.118678 109.02072,74.278173 C 109.02069,73.437715 108.82872,72.737314 108.44481,72.176967 C 108.08643,71.576649 107.6385,71.276476 107.101,71.27645 M 115.58614,86.765339 C 115.5861,85.844823 115.36853,85.104399 114.93343,84.544064 C 114.49826,83.943734 113.98634,83.643561 113.39766,83.643548 C 112.9113,83.643561 112.51456,83.963745 112.20744,84.604099 C 111.90025,85.244479 111.74668,85.964891 111.74671,86.765339 C 111.74668,87.605831 111.92586,88.326245 112.28423,88.92658 C 112.66814,89.486909 113.12887,89.76707 113.66642,89.767061 C 114.17831,89.76707 114.62624,89.466898 115.01022,88.866546 C 115.39413,88.26621 115.5861,87.565809 115.58614,86.765339 M 108.36801,77.520034 C 107.83047,77.520054 107.36974,77.820226 106.98582,78.420551 C 106.62745,78.980891 106.44828,79.681291 106.4483,80.521757 C 106.44828,81.322231 106.64025,82.022633 107.02421,82.622962 C 107.40813,83.22332 107.85606,83.523493 108.36801,83.523479 C 108.90551,83.523493 109.35344,83.243332 109.71182,82.682996 C 110.09573,82.082667 110.2877,81.362255 110.28773,80.521757 C 110.2877,79.681291 110.09573,78.980891 109.71182,78.420551 C 109.35344,77.820226 108.90551,77.520054 108.36801,77.520034 M 102.18654,68.034591 C 102.18652,67.194138 101.99455,66.493736 101.61062,65.933384 C 101.25226,65.333073 100.80433,65.0329 100.26683,65.032868 C 99.72929,65.0329 99.268557,65.333073 98.884632,65.933384 C 98.526272,66.493736 98.3471,67.194138 98.347115,68.034591 C 98.3471,68.835078 98.539066,69.53548 98.923029,70.135796 C 99.306954,70.736167 99.754885,71.036339 100.26683,71.036313 C 100.80433,71.036339 101.25226,70.756179 101.61062,70.19583 C 101.99455,69.595514 102.18652,68.875102 102.18654,68.034591 M 109.71182,83.643548 C 109.12307,83.643561 108.61115,83.943734 108.17604,84.544064 C 107.74088,85.104399 107.52332,85.844823 107.52334,86.765339 C 107.52332,87.605831 107.70249,88.326245 108.06086,88.92658 C 108.44478,89.486909 108.90551,89.76707 109.44306,89.767061 C 109.98054,89.76707 110.42848,89.486909 110.78685,88.92658 C 111.17077,88.326245 111.36273,87.605831 111.36277,86.765339 C 111.36273,85.964891 111.20916,85.244479 110.90203,84.604099 C 110.59485,83.963745 110.19811,83.643561 109.71182,83.643548 M 113.1673,93.008923 C 113.16726,92.168446 112.9753,91.468044 112.59139,90.907717 C 112.233,90.307379 111.78507,90.007207 111.24758,90.0072 C 110.71004,90.007207 110.2493,90.307379 109.86539,90.907717 C 109.50702,91.468044 109.32785,92.168446 109.32787,93.008923 C 109.32785,93.849408 109.50702,94.569821 109.86539,95.170163 C 110.2493,95.730486 110.71004,96.010646 111.24758,96.010645 C 111.75948,96.010646 112.20741,95.710475 112.59139,95.110128 C 112.9753,94.509786 113.16726,93.809385 113.1673,93.008923 M 100.95793,74.278173 C 100.9579,73.437715 100.76594,72.737314 100.38201,72.176967 C 100.02364,71.576649 99.575712,71.276476 99.03821,71.27645 C 98.500677,71.276476 98.039944,71.576649 97.656019,72.176967 C 97.297659,72.737314 97.118479,73.437715 97.118502,74.278173 C 97.118479,75.078655 97.310453,75.779057 97.694416,76.37938 C 98.078341,76.979744 98.526272,77.279917 99.03821,77.279895 C 99.575712,77.279917 100.02364,76.999756 100.38201,76.439414 C 100.76594,75.839091 100.9579,75.118678 100.95793,74.278173 M 86.291318,52.545702 C 85.753793,52.545747 85.29306,52.845918 84.909128,53.446218 C 84.550775,54.006583 84.371603,54.706984 84.371603,55.547424 C 84.371603,56.387947 84.550775,57.10836 84.909128,57.708664 C 85.29306,58.269025 85.753793,58.549186 86.291318,58.549147 C 86.828836,58.549186 87.276767,58.269025 87.63512,57.708664 C 88.019052,57.10836 88.211026,56.387947 88.211034,55.547424 C 88.211026,54.706984 88.019052,54.006583 87.63512,53.446218 C 87.276767,52.845918 86.828836,52.545747 86.291318,52.545702 M 87.63512,58.789284 C 87.097595,58.789323 86.636862,59.089495 86.252922,59.689801 C 85.894577,60.25016 85.715397,60.950562 85.715404,61.791007 C 85.715397,62.631524 85.894577,63.351938 86.252922,63.952248 C 86.636862,64.512601 87.097595,64.792762 87.63512,64.792729 C 88.147035,64.792762 88.594966,64.492591 88.978914,63.892212 C 89.362854,63.291902 89.55482,62.591502 89.554828,61.791007 C 89.55482,60.950562 89.362854,60.25016 88.978914,59.689801 C 88.620561,59.089495 88.17263,58.789323 87.63512,58.789284 M 99.729305,80.521757 C 99.72929,79.681291 99.537316,78.980891 99.153391,78.420551 C 98.795031,77.820226 98.3471,77.520054 97.809597,77.520034 C 97.272057,77.520054 96.811332,77.820226 96.427399,78.420551 C 96.069039,78.980891 95.889866,79.681291 95.889881,80.521757 C 95.889866,81.362255 96.069039,82.082667 96.427399,82.682996 C 96.811332,83.243332 97.272057,83.523493 97.809597,83.523479 C 98.321505,83.523493 98.769436,83.22332 99.153391,82.622962 C 99.537316,82.022633 99.72929,81.322231 99.729305,80.521757 M 88.978914,65.032868 C 88.441389,65.0329 87.980656,65.333073 87.596724,65.933384 C 87.238371,66.493736 87.059198,67.194138 87.059206,68.034591 C 87.059198,68.875102 87.238371,69.595514 87.596724,70.19583 C 87.980656,70.756179 88.441389,71.036339 88.978914,71.036313 C 89.490829,71.036339 89.938761,70.736167 90.322716,70.135796 C 90.706648,69.53548 90.898622,68.835078 90.89863,68.034591 C 90.898622,67.194138 90.706648,66.493736 90.322716,65.933384 C 89.964363,65.333073 89.516424,65.0329 88.978914,65.032868 M 90.169138,71.27645 C 89.631613,71.276476 89.17088,71.576649 88.786948,72.176967 C 88.428595,72.737314 88.249415,73.437715 88.249423,74.278173 C 88.249415,75.078655 88.441389,75.779057 88.825337,76.37938 C 89.209277,76.979744 89.657208,77.279917 90.169138,77.279895 C 90.706648,77.279917 91.15458,76.999756 91.51294,76.439414 C 91.896872,75.839091 92.088839,75.118678 92.088854,74.278173 C 92.088839,73.437715 91.896872,72.737314 91.51294,72.176967 C 91.15458,71.576649 90.706648,71.276476 90.169138,71.27645 M 98.65427,86.765339 C 98.654255,85.844823 98.436686,85.104399 98.001563,84.544064 C 97.566418,83.943734 97.054495,83.643561 96.465795,83.643548 C 95.979453,83.643561 95.582711,83.963745 95.275571,84.604099 C 94.968408,85.244479 94.814831,85.964891 94.814846,86.765339 C 94.814831,87.605831 94.994003,88.326245 95.352364,88.92658 C 95.736289,89.486909 96.197021,89.76707 96.734554,89.767061 C 97.246462,89.76707 97.694393,89.466898 98.078356,88.866546 C 98.462281,88.26621 98.654255,87.565809 98.65427,86.765339 M 91.436147,77.520034 C 90.898622,77.520054 90.43789,77.820226 90.053957,78.420551 C 89.695604,78.980891 89.516424,79.681291 89.516439,80.521757 C 89.516424,81.322231 89.708398,82.022633 90.092353,82.622962 C 90.476286,83.22332 90.924217,83.523493 91.436147,83.523479 C 91.973658,83.523493 92.421589,83.243332 92.779949,82.682996 C 93.163882,82.082667 93.355848,81.362255 93.355863,80.521757 C 93.355848,79.681291 93.163882,78.980891 92.779949,78.420551 C 92.421589,77.820226 91.973658,77.520054 91.436147,77.520034 M 92.779949,83.643548 C 92.191226,83.643561 91.679304,83.943734 91.244181,84.544064 C 90.809036,85.104399 90.591467,85.844823 90.591475,86.765339 C 90.591467,87.605831 90.77064,88.326245 91.128992,88.92658 C 91.512925,89.486909 91.973658,89.76707 92.51119,89.767061 C 93.048693,89.76707 93.496632,89.486909 93.854984,88.92658 C 94.238917,88.326245 94.430891,87.605831 94.430898,86.765339 C 94.430891,85.964891 94.277313,85.244479 93.970166,84.604099 C 93.663003,83.963745 93.266262,83.643561 92.779949,83.643548 M 96.235433,93.008923 C 96.235418,92.168446 96.043444,91.468044 95.659519,90.907717 C 95.301159,90.307379 94.853227,90.007207 94.315717,90.0072 C 93.778184,90.007207 93.317452,90.307379 92.933527,90.907717 C 92.575166,91.468044 92.395994,92.168446 92.396001,93.008923 C 92.395994,93.849408 92.575166,94.569821 92.933527,95.170163 C 93.317452,95.730486 93.778184,96.010646 94.315717,96.010645 C 94.827625,96.010646 95.275564,95.710475 95.659519,95.110128 C 96.043444,94.509786 96.235418,93.809385 96.235433,93.008923"
       id="text22753" />
    <path
       sodipodi:type="star"
       style="fill:#ffc063;fill-opacity:1;stroke:none;stroke-width:1;stroke-linecap:round;stroke-linejoin:round;stroke-miterlimit:4;stroke-dasharray:none;stroke-dashoffset:0;stroke-opacity:1"
       id="path23617"
       sodipodi:sides="5"
       sodipodi:cx="1.4285713"
       sodipodi:cy="2.1428568"
       sodipodi:r1="45.928627"
       sodipodi:r2="21.127169"
       sodipodi:arg1="0.92885043"
       sodipodi:arg2="1.557169"
       inkscape:flatsided="false"
       inkscape:rounded="0"
       inkscape:randomized="0"
       d="M 28.928571,38.928571 L 1.7164693,23.268064 L -25.058755,39.664322 L -18.573729,8.944712 L -42.441496,-11.453317 L -11.221428,-14.778572 L 0.8027045,-43.781506 L 13.612742,-15.117017 L 44.911832,-12.643786 L 21.608802,8.3970976 L 28.928571,38.928571 z"
       transform="matrix(0.1196814,0,0,0.1261712,117.22791,8.9646436)" />
    <path
       sodipodi:type="star"
       style="fill:#ffffa9;fill-opacity:1;stroke:none;stroke-width:1;stroke-linecap:round;stroke-linejoin:round;stroke-miterlimit:4;stroke-dasharray:none;stroke-dashoffset:0;stroke-opacity:1"
       id="path23623"
       sodipodi:sides="5"
       sodipodi:cx="1.4285713"
       sodipodi:cy="2.1428568"
       sodipodi:r1="45.928627"
       sodipodi:r2="21.127169"
       sodipodi:arg1="0.92885043"
       sodipodi:arg2="1.557169"
       inkscape:flatsided="false"
       inkscape:rounded="0"
       inkscape:randomized="0"
       d="M 28.928571,38.928571 L 1.7164693,23.268064 L -25.058755,39.664322 L -18.573729,8.944712 L -42.441496,-11.453317 L -11.221428,-14.778572 L 0.8027045,-43.781506 L 13.612742,-15.117017 L 44.911832,-12.643786 L 21.608802,8.3970976 L 28.928571,38.928571 z"
       transform="matrix(0.1196814,0,0,0.1261712,108.44357,36.112498)" />
    <path
       sodipodi:type="star"
       style="fill:#ffffa9;fill-opacity:1;stroke:none;stroke-width:1;stroke-linecap:round;stroke-linejoin:round;stroke-miterlimit:4;stroke-dasharray:none;stroke-dashoffset:0;stroke-opacity:1"
       id="path23627"
       sodipodi:sides="5"
       sodipodi:cx="1.4285713"
       sodipodi:cy="2.1428568"
       sodipodi:r1="45.928627"
       sodipodi:r2="21.127169"
       sodipodi:arg1="0.92885043"
       sodipodi:arg2="1.557169"
       inkscape:flatsided="false"
       inkscape:rounded="0"
       inkscape:randomized="0"
       d="M 28.928571,38.928571 L 1.7164693,23.268064 L -25.058755,39.664322 L -18.573729,8.944712 L -42.441496,-11.453317 L -11.221428,-14.778572 L 0.8027045,-43.781506 L 13.612742,-15.117017 L 44.911832,-12.643786 L 21.608802,8.3970976 L 28.928571,38.928571 z"
       transform="matrix(0.1196814,0,0,0.1261712,6.1656232,38.132802)" />
    <path
       style="fill:#ffd556;fill-opacity:1;stroke:none;stroke-width:1;stroke-linecap:round;stroke-linejoin:round;stroke-miterlimit:4;stroke-dasharray:none;stroke-dashoffset:0;stroke-opacity:1"
       d="M 59 129.0625 C 58.730655 129.38661 58.398016 129.66261 58.03125 129.875 C 58.031539 129.9169 58.03125 129.95796 58.03125 130 L 58.03125 132.6875 C 58.03125 133.57768 57.973354 134.42047 57.875 135.25 L 58.09375 135.09375 L 61.34375 137.09375 L 60.46875 133.21875 L 63.25 130.5625 L 59.5 130.25 L 59 129.0625 z "
       id="path23633" />
    <path
       sodipodi:type="star"
       style="fill:#a36000;fill-opacity:1;stroke:none;stroke-width:1;stroke-linecap:round;stroke-linejoin:round;stroke-miterlimit:4;stroke-dasharray:none;stroke-dashoffset:0;stroke-opacity:1"
       id="path23653"
       sodipodi:sides="5"
       sodipodi:cx="1.4285713"
       sodipodi:cy="2.1428568"
       sodipodi:r1="45.928627"
       sodipodi:r2="21.127169"
       sodipodi:arg1="0.92885043"
       sodipodi:arg2="1.557169"
       inkscape:flatsided="false"
       inkscape:rounded="0"
       inkscape:randomized="0"
       d="M 28.928571,38.928571 L 1.7164693,23.268064 L -25.058755,39.664322 L -18.573729,8.944712 L -42.441496,-11.453317 L -11.221428,-14.778572 L 0.8027045,-43.781506 L 13.612742,-15.117017 L 44.911832,-12.643786 L 21.608802,8.3970976 L 28.928571,38.928571 z"
       transform="matrix(0.1196814,0,0,0.1261712,92.117879,137.09077)" />
    <path
       sodipodi:type="star"
       style="fill:#ffffa9;fill-opacity:1;stroke:none;stroke-width:1;stroke-linecap:round;stroke-linejoin:round;stroke-miterlimit:4;stroke-dasharray:none;stroke-dashoffset:0;stroke-opacity:1"
       id="path23638"
       sodipodi:sides="5"
       sodipodi:cx="1.4285713"
       sodipodi:cy="2.1428568"
       sodipodi:r1="45.928627"
       sodipodi:r2="21.127169"
       sodipodi:arg1="0.92885043"
       sodipodi:arg2="1.557169"
       inkscape:flatsided="false"
       inkscape:rounded="0"
       inkscape:randomized="0"
       d="M 28.928571,38.928571 L 1.7164693,23.268064 L -25.058755,39.664322 L -18.573729,8.944712 L -42.441496,-11.453317 L -11.221428,-14.778572 L 0.8027045,-43.781506 L 13.612742,-15.117017 L 44.911832,-12.643786 L 21.608802,8.3970976 L 28.928571,38.928571 z"
       transform="matrix(0.1196814,0,0,0.1261712,91.816459,136.50974)" />
    <path
       sodipodi:type="star"
       style="fill:#ffffa9;fill-opacity:1;stroke:none;stroke-width:1;stroke-linecap:round;stroke-linejoin:round;stroke-miterlimit:4;stroke-dasharray:none;stroke-dashoffset:0;stroke-opacity:1"
       id="path23640"
       sodipodi:sides="5"
       sodipodi:cx="1.4285713"
       sodipodi:cy="2.1428568"
       sodipodi:r1="45.928627"
       sodipodi:r2="21.127169"
       sodipodi:arg1="0.92885043"
       sodipodi:arg2="1.557169"
       inkscape:flatsided="false"
       inkscape:rounded="0"
       inkscape:randomized="0"
       d="M 28.928571,38.928571 L 1.7164693,23.268064 L -25.058755,39.664322 L -18.573729,8.944712 L -42.441496,-11.453317 L -11.221428,-14.778572 L 0.8027045,-43.781506 L 13.612742,-15.117017 L 44.911832,-12.643786 L 21.608802,8.3970976 L 28.928571,38.928571 z"
       transform="matrix(0.1196814,0,0,0.1261712,37.709314,42.759734)" />
    <path
       sodipodi:type="star"
       style="fill:#ffffa9;fill-opacity:1;stroke:none;stroke-width:1;stroke-linecap:round;stroke-linejoin:round;stroke-miterlimit:4;stroke-dasharray:none;stroke-dashoffset:0;stroke-opacity:1"
       id="path23644"
       sodipodi:sides="5"
       sodipodi:cx="1.4285713"
       sodipodi:cy="2.1428568"
       sodipodi:r1="45.928627"
       sodipodi:r2="21.127169"
       sodipodi:arg1="0.92885043"
       sodipodi:arg2="1.557169"
       inkscape:flatsided="false"
       inkscape:rounded="0"
       inkscape:randomized="0"
       d="M 28.928571,38.928571 L 1.7164693,23.268064 L -25.058755,39.664322 L -18.573729,8.944712 L -42.441496,-11.453317 L -11.221428,-14.778572 L 0.8027045,-43.781506 L 13.612742,-15.117017 L 44.911832,-12.643786 L 21.608802,8.3970976 L 28.928571,38.928571 z"
       transform="matrix(0.1196814,0,0,0.1261712,6.6378877,126.08388)" />
    <path
       sodipodi:type="star"
       style="fill:#ffffa9;fill-opacity:1;stroke:none;stroke-width:1;stroke-linecap:round;stroke-linejoin:round;stroke-miterlimit:4;stroke-dasharray:none;stroke-dashoffset:0;stroke-opacity:1"
       id="path23655"
       sodipodi:sides="5"
       sodipodi:cx="1.4285713"
       sodipodi:cy="2.1428568"
       sodipodi:r1="45.928627"
       sodipodi:r2="21.127169"
       sodipodi:arg1="0.92885043"
       sodipodi:arg2="1.557169"
       inkscape:flatsided="false"
       inkscape:rounded="0"
       inkscape:randomized="0"
       d="M 28.928571,38.928571 L 1.7164693,23.268064 L -25.058755,39.664322 L -18.573729,8.944712 L -42.441496,-11.453317 L -11.221428,-14.778572 L 0.8027045,-43.781506 L 13.612742,-15.117017 L 44.911832,-12.643786 L 21.608802,8.3970976 L 28.928571,38.928571 z"
       transform="matrix(0.1196814,0,0,0.1261712,129.90932,135.86506)" />
  </g>
</svg>
